<?xml version="1.0" standalone="no"?>
<!DOCTYPE svg PUBLIC "-//W3C//DTD SVG 20010904//EN"
 "http://www.w3.org/TR/2001/REC-SVG-20010904/DTD/svg10.dtd">
<svg version="1.0" xmlns="http://www.w3.org/2000/svg"
 width="100.000000pt" height="341.000000pt" viewBox="0 0 100.000000 341.000000"
 preserveAspectRatio="xMidYMid meet">
<metadata>
Created by potrace 1.11, written by Peter Selinger 2001-2013
</metadata>
<g transform="translate(0.000000,341.000000) scale(0.100000,-0.100000)"
fill="#000000" stroke="none">
<path d="M430 3390 c-65 -40 -75 -63 -75 -175 0 -79 4 -105 18 -125 26 -37 24
-143 -4 -171 -28 -28 -154 -85 -208 -94 -55 -9 -105 -53 -127 -110 -14 -37
-15 -62 -9 -143 12 -165 13 -393 2 -483 -8 -66 -7 -107 2 -170 7 -46 16 -145
20 -219 7 -119 11 -141 34 -184 15 -27 27 -54 27 -61 0 -11 72 -75 84 -75 15
0 3 42 -20 69 -21 26 -23 31 -9 31 15 0 16 6 10 33 -4 17 -11 56 -14 85 -4 28
-12 57 -19 64 -17 17 -15 40 13 152 28 117 49 278 40 314 -3 14 -3 82 1 151
l8 126 14 -65 c24 -109 21 -334 -7 -465 -21 -97 -23 -125 -17 -243 7 -146 32
-309 77 -504 28 -121 29 -132 18 -223 -14 -116 -4 -206 47 -461 48 -241 47
-314 -5 -363 -34 -32 -40 -67 -14 -75 15 -4 152 -2 176 3 9 1 -1 166 -13 204
-6 16 -5 85 1 166 9 126 15 501 18 1035 1 110 4 197 7 193 3 -3 8 -232 10
-509 2 -277 9 -584 15 -684 7 -129 7 -189 -1 -209 -6 -16 -8 -46 -5 -67 4 -22
1 -52 -7 -73 -18 -52 0 -63 105 -61 78 1 82 2 85 25 3 15 -6 34 -26 55 -26 26
-32 41 -37 101 -5 60 0 100 37 275 42 204 43 206 41 395 -2 158 1 202 17 265
41 162 72 375 77 520 5 123 2 161 -17 254 -19 93 -21 130 -17 260 3 83 10 174
14 201 9 49 9 48 17 -50 5 -55 9 -161 11 -235 2 -108 7 -156 29 -238 28 -113
32 -162 14 -180 -7 -7 -15 -36 -19 -64 -4 -29 -11 -65 -14 -80 -5 -20 -3 -27
10 -30 16 -3 15 -7 -9 -34 -25 -30 -35 -64 -18 -64 25 1 84 73 111 137 27 62
31 83 31 160 0 48 7 126 15 173 17 95 20 219 6 266 -5 19 -5 112 1 230 16 311
15 335 -13 391 -26 49 -83 93 -124 93 -40 0 -175 62 -200 92 -30 35 -34 111
-10 158 8 16 20 63 26 105 10 65 9 82 -6 120 -23 62 -71 97 -138 102 -40 3
-60 -1 -87 -17z"/>
</g>
</svg>
