<?xml version="1.0" encoding="utf-8"?>
<!-- Generator: Adobe Illustrator 16.0.0, SVG Export Plug-In . SVG Version: 6.00 Build 0)  -->
<!DOCTYPE svg PUBLIC "-//W3C//DTD SVG 1.1//EN" "http://www.w3.org/Graphics/SVG/1.1/DTD/svg11.dtd">
<svg version="1.1" id="Layer_2" xmlns="http://www.w3.org/2000/svg" xmlns:xlink="http://www.w3.org/1999/xlink" x="0px" y="0px"
	 width="32px" height="32px" viewBox="0 0 32 32" style="enable-background:new 0 0 32 32;" xml:space="preserve">
<style type="text/css">
<![CDATA[
	.st0{fill-rule:evenodd;clip-rule:evenodd;}
]]>
</style>
<g>
	<path d="M4.8,23.9c-0.1-0.1-0.2-0.2-0.3-0.3C4.3,23.2,4,22.8,4,22.3c0-3,0-5.9,0-8.9c0-1.2,0.9-2.1,2.2-2.1c0.6,0,1.1,0,1.7,0
		c0.7,0,1.4,0,2.2,0.1c0.5,0.1,1.1,0,1.6-0.1c0.3,0,0.7-0.2,1-0.3c0,5,0,10.1,0.1,15.1c0.3,0,0.7,0,1,0c0-4.9,0-9.8-0.1-14.7
		c0.9,0.6,1.8,0.9,2.7,1c0,4.6,0,9.2,0.1,13.7c0.4,0,0.7,0,1,0c0-4.6,0-9.2-0.1-13.7c1-0.1,1.9-0.5,2.7-1c0,5,0,9.9,0.1,14.8
		c0.4,0,0.7,0,1,0c0-5,0-10-0.1-14.9c0.6,0.1,1.1,0.3,1.7,0.3c0.6,0,1.1-0.1,1.8-0.1c0,0.8-0.1,1.7-0.1,2.5c0,4,0,8,0.1,12.1
		c0,0.9,0,1.8-0.5,2.5c-0.2,0.2-0.5,0.5-0.7,0.7c-0.5,0.3-1.1,0.4-1.7,0.4c-0.8,0-1.6,0-2.5,0c-2.5,0-5,0-7.5,0
		c-0.4,0-0.8-0.1-1.2-0.3c-0.9-0.6-1.4-1.4-1.4-2.5c0-0.8,0-1.5,0-2.3c-0.7,0-1.3,0-2,0C6.4,24.4,5.6,24.5,4.8,23.9z M6.2,22.2
		c1,0,2,0,2.9,0c0-2.9,0.1-5.8,0.1-8.7c-1.1,0-2.1,0-3.1,0C6.1,16.4,6.1,19.3,6.2,22.2z"/>
	<path class="st0" d="M26,4.7c0.1,0.2,0.2,0.3,0.3,0.5c0.9,1.6,0.5,3.4-0.9,4.6c-1.2,1-3.1,1-4.4,0c-0.1-0.1-0.2-0.2-0.3-0.3
		c-0.9,1.2-2.2,1.9-3.7,1.9c-1.5,0-2.8-0.7-3.7-1.9c-0.3,0.2-0.6,0.4-1,0.6c-1.4,0.7-3.2,0.4-4.3-0.8C6.8,8,6.7,6.2,7.6,4.8
		c0,0,0-0.1,0.1-0.1c0.3-0.3,0.5-0.5,0.8-0.8c0,0,0.1,0,0.1,0c1-0.6,2.1-0.8,3.2-0.4c0.5,0.2,0.9,0.5,1.4,0.7
		c0.9-1.2,2.1-1.9,3.7-1.8c1.5,0,2.8,0.7,3.7,1.9c0,0,0.1-0.1,0.1-0.1c1.2-1,2.4-1.2,3.8-0.6C24.8,3.7,25,3.9,25.3,4
		C25.5,4.3,25.8,4.5,26,4.7z"/>
</g>
</svg>
