<?xml version="1.0" encoding="utf-8"?>
<!-- Generator: Adobe Illustrator 16.0.0, SVG Export Plug-In . SVG Version: 6.00 Build 0)  -->
<!DOCTYPE svg PUBLIC "-//W3C//DTD SVG 1.1//EN" "http://www.w3.org/Graphics/SVG/1.1/DTD/svg11.dtd">
<svg version="1.1" xmlns="http://www.w3.org/2000/svg" xmlns:xlink="http://www.w3.org/1999/xlink" x="0px" y="0px" width="32px"
	 height="32px" viewBox="0 0 32 32" style="enable-background:new 0 0 32 32;" xml:space="preserve">
<style type="text/css">
<![CDATA[
	.st0{fill-rule:evenodd;clip-rule:evenodd;}
	.st1{display:none;}
	.st2{display:inline;fill-rule:evenodd;clip-rule:evenodd;}
]]>
</style>
<g id="Layer_2" class="st1">
	<path class="st2" d="M2.1,28.8c0.1-0.4,0.2-0.8,0.3-1.2c0.1-0.3,0.2-0.6,0.5-0.8c1.7-1.6,3.4-3.2,5.1-4.8c0.4-0.4,0.8-0.7,1.2-1.1
		c0.1-0.1,0.1-0.1,0.1-0.2c0-0.3,0.1-0.5,0.3-0.7c0.5-0.5,1-1,1.6-1.5c0,0,0,0,0.1-0.1c-0.2-0.2-0.4-0.4-0.6-0.6
		c-0.6-0.5-0.4-1.1,0-1.5c3-2.9,6-5.9,9-8.8c0.4-0.4,0.7-0.7,1.1-1.1c0.4-0.4,1-0.4,1.4,0c0.1,0.1,0.2,0.2,0.3,0.3
		c0.5-0.5,1-1,1.5-1.6c-0.1-0.1-0.3-0.3-0.5-0.5c-0.5-0.5-0.4-1,0-1.4c0.2-0.2,0.4-0.4,0.6-0.6c0.2-0.2,0.4-0.4,0.7-0.5
		c0.1,0,0.2,0,0.4,0c0.3,0.1,0.5,0.3,0.7,0.5c1.3,1.4,2.7,2.7,4,4.1C29.9,6.9,30,7,30,7.3c0,0.1,0,0.2,0,0.4c0,0.2-0.1,0.3-0.2,0.4
		c-0.3,0.3-0.6,0.6-0.9,0.9c-0.5,0.4-1,0.4-1.4,0c-0.2-0.2-0.4-0.3-0.5-0.5c-0.5,0.5-1,1-1.5,1.5c0,0,0,0-0.1,0
		c0.1,0.1,0.2,0.2,0.3,0.3c0.5,0.5,0.5,1,0,1.5c-1.6,1.6-3.2,3.2-4.9,4.8c-1.8,1.7-3.5,3.4-5.3,5.2c-0.4,0.4-1,0.4-1.4,0
		c-0.2-0.2-0.4-0.4-0.7-0.6c-0.1,0.1-0.1,0.2-0.2,0.2c-0.4,0.4-0.9,0.9-1.3,1.3c-0.3,0.3-0.6,0.4-1,0.3c-0.1,0-0.1,0-0.2,0.1
		c-0.9,0.8-1.8,1.7-2.7,2.5c-1.5,1.4-3,2.8-4.4,4.2c-0.6,0.6-1.4,0.2-1.5-0.4c0,0,0,0,0,0C2.1,29,2.1,28.9,2.1,28.8z M14,14.6
		c1.6,0,3.2,0,4.8,0c0,0,0,0,0-0.1c-0.2-0.1-0.3-0.3-0.5-0.4c-0.1-0.1-0.2-0.3-0.1-0.4c0.1-0.1,0.3-0.1,0.4,0.1
		c0.3,0.3,0.5,0.5,0.8,0.8c0.1,0,0.1,0.1,0.2,0.1c0.4,0,0.9,0,1.3,0c0.1,0,0.1,0,0.2,0c0.2-0.2,0.4-0.5,0.7-0.7c0,0,0,0,0,0
		c-0.5-0.5-1-1-1.5-1.6c-0.1-0.1-0.2-0.3,0-0.4c0.1-0.1,0.3-0.1,0.4,0c0.5,0.5,1,1,1.5,1.5c0,0,0.1,0.1,0.1,0.1
		c0.9-0.9,1.8-1.8,2.7-2.6c-1.2-1.2-2.3-2.4-3.5-3.5C18.9,9.8,16.4,12.2,14,14.6z M24.3,9.5c0.8-0.8,1.6-1.5,2.4-2.3
		c-0.5-0.5-1-1-1.5-1.5c-0.8,0.8-1.6,1.5-2.4,2.3C23.2,8.5,23.7,9,24.3,9.5z M10.7,21.7c-0.2-0.2-0.3-0.3-0.4-0.5c0,0,0,0-0.1,0
		c-2.2,2.1-4.5,4.2-6.7,6.3c0,0-0.1,0.1-0.1,0.1c-0.1,0.4-0.2,0.8-0.3,1.2c0,0,0,0,0,0C5.6,26.5,8.1,24.1,10.7,21.7z M28.8,7.4
		c-1.3-1.3-2.6-2.7-3.9-4c-0.2,0.2-0.4,0.4-0.6,0.7c1.3,1.3,2.6,2.7,3.9,4C28.4,7.8,28.6,7.6,28.8,7.4z"/>
</g>
<g id="Layer_3">
	<path class="st0" d="M21.3,11.7c-0.3-0.8-3-3.4-3.8-3.8c-1.9-1-4.2-0.2-5,0.9c-1.6,2.3-4.6,3.7-5.7,6.4c-0.9,2.4-2,4.7-2.7,7.1
		c-0.6,2.1-2.4,3.8-2.2,6h27.9c0.1-2-0.3-4.1-1.2-5.9c-0.6-1.2-1.3-2.3-1.9-3.5c-0.5-1-0.7-2.2-1.2-3.2c-0.5-0.9-1.1-0.8-1.8-1.5"/>
</g>
</svg>
