<?xml version="1.0" encoding="utf-8"?>
<!-- Generator: Adobe Illustrator 16.0.0, SVG Export Plug-In . SVG Version: 6.00 Build 0)  -->
<!DOCTYPE svg PUBLIC "-//W3C//DTD SVG 1.1//EN" "http://www.w3.org/Graphics/SVG/1.1/DTD/svg11.dtd">
<svg version="1.1" id="Layer_3" xmlns="http://www.w3.org/2000/svg" xmlns:xlink="http://www.w3.org/1999/xlink" x="0px" y="0px"
	 width="32px" height="32px" viewBox="0 0 32 32" style="enable-background:new 0 0 32 32;" xml:space="preserve">
<style type="text/css">
<![CDATA[
	.st0{fill-rule:evenodd;clip-rule:evenodd;}
]]>
</style>
<path class="st0" d="M21.3,11.7c-0.3-0.8-3-3.4-3.8-3.8c-1.9-1-4.2-0.2-5,0.9c-1.6,2.3-4.6,3.7-5.7,6.4c-0.9,2.4-2,4.7-2.7,7.1
	c-0.6,2.1-2.4,3.8-2.2,6h27.9c0.1-2-0.3-4.1-1.2-5.9c-0.6-1.2-1.3-2.3-1.9-3.5c-0.5-1-0.7-2.2-1.2-3.2c-0.5-0.9-1.1-0.8-1.8-1.5"/>
</svg>
