<?xml version="1.0" encoding="utf-8"?>
<!-- Generator: Adobe Illustrator 16.0.0, SVG Export Plug-In . SVG Version: 6.00 Build 0)  -->
<!DOCTYPE svg PUBLIC "-//W3C//DTD SVG 1.1//EN" "http://www.w3.org/Graphics/SVG/1.1/DTD/svg11.dtd">
<svg version="1.1" id="Layer_1" xmlns="http://www.w3.org/2000/svg" xmlns:xlink="http://www.w3.org/1999/xlink" x="0px" y="0px"
	 width="32px" height="32px" viewBox="0 0 32 32" style="enable-background:new 0 0 32 32;" xml:space="preserve">
<style type="text/css">
<![CDATA[
	.st0{fill-rule:evenodd;clip-rule:evenodd;}
]]>
</style>
<g id="_x33_rRffC_1_">
	<g>
		<path class="st0" d="M19.1,27.5C19,27.6,19,27.6,19,27.7c0,0-0.1,0-0.1,0s0,0-0.1-0.1c0-0.1-0.1-0.3-0.1-0.4c0,0-0.1-0.1-0.1-0.1
			c0,0,0,0,0,0c0,0,0,0.1,0,0.1c0,0,0,0.1-0.1,0.1s-0.1,0-0.1-0.1c0-0.1-0.1-0.2-0.1-0.4c-0.1,0-0.1,0-0.2,0.1c-0.1,0-0.1,0.1-0.1,0
			c-0.1-0.2-0.2-0.4-0.2-0.5c0,0,0,0,0,0c0,0.1-0.1,0.1-0.2,0.2c-0.1-0.1-0.2-0.2-0.2-0.4c-0.1-0.1-0.1-0.1-0.2,0
			c0,0-0.1,0.1-0.1,0.1c-0.1-0.2-0.2-0.4-0.3-0.6c-0.1,0.1-0.2,0.2-0.2,0.3c-0.1-0.3-0.2-0.5-0.3-0.8c-0.1,0.1-0.1,0.1-0.2,0.1
			c-0.1-0.3-0.3-0.7-0.4-1.1c0,0.1-0.1,0.1-0.1,0.2c-0.2-0.1-0.1-0.3-0.2-0.4c0,0,0,0.1,0,0.1c0,0.3,0,0.6,0,0.9
			c-0.1,0.8,0,1.6-0.1,2.4c-0.1,0.9,0,1.8-0.1,2.7c0,0.2-0.1,0.3-0.3,0.2c-0.1-0.2-0.1-0.4-0.2-0.6c-0.1-0.2,0-0.5-0.1-0.7
			c0-0.2-0.1-0.5-0.1-0.7c0.1-0.5,0-0.9,0.1-1.4c0-0.3,0-0.5,0.1-0.8c0.1-0.2,0-0.5,0.1-0.7c0.1-0.2,0-0.4,0.1-0.5
			c0.1-0.2,0-0.3,0.1-0.5c0,0,0-0.1,0-0.1c0-0.1-0.1-0.1-0.1-0.2c-0.3,0.3-0.4,0.7-0.6,1c0,0-0.1-0.1-0.1-0.1c0,0.1-0.1,0.1-0.1,0.2
			c-0.1,0.1-0.2,0.3-0.2,0.4c0,0-0.1,0-0.1,0c0,0-0.1-0.1-0.1-0.2c-0.1,0.2-0.2,0.4-0.4,0.6c0,0-0.1-0.1-0.1-0.2
			c0-0.1-0.1-0.1-0.2,0c-0.1,0.1-0.2,0.2-0.2,0.3c0,0-0.1,0-0.1,0c0,0,0,0,0-0.1c0,0,0-0.1,0-0.1c0,0,0,0-0.1,0c0,0-0.1,0-0.1,0
			c-0.1,0.2-0.2,0.4-0.3,0.6c-0.1-0.1-0.1-0.1-0.2-0.2c0,0.1-0.1,0.2-0.1,0.2c-0.1,0.1-0.1,0.2-0.2,0.3c0,0,0,0,0,0
			c0-0.1,0-0.2,0-0.2c0,0,0,0,0,0c-0.1,0.1-0.1,0.2-0.2,0.3c0,0.1-0.1,0.1-0.1,0.2c0,0-0.1,0-0.1,0c0-0.1,0-0.1,0-0.1
			c0,0-0.1-0.1-0.1-0.1c0,0-0.1,0.1-0.1,0.1c-0.1,0.1-0.1,0.2-0.2,0.3c0,0-0.1,0-0.1,0c0,0,0-0.1-0.1-0.2c-0.1,0.1-0.2,0.2-0.3,0.3
			c-0.1-0.1-0.1-0.1-0.3,0c0,0-0.1,0-0.1,0.1c0,0,0,0,0,0c0,0,0.1-0.1,0.1-0.1c0,0,0-0.1,0.1-0.1c0,0-0.1,0-0.1,0c0,0,0,0,0,0
			c0.1-0.1,0.1-0.2,0.2-0.2c-0.1-0.1-0.1-0.2,0.1-0.3c0.1,0,0.1-0.1,0.1-0.2c0,0-0.1,0-0.1,0c0-0.1,0-0.1,0.1-0.1
			c0.1-0.1,0.2-0.2,0.4-0.2c0,0,0-0.1,0-0.1c0,0,0-0.1-0.1-0.1c0.2-0.1,0.3-0.1,0.5-0.2c-0.1-0.1-0.2-0.1-0.2-0.2
			c0.2-0.1,0.4-0.1,0.6-0.3c0,0-0.1,0-0.1,0c0,0,0,0-0.1,0c0,0,0,0,0,0c0.1,0,0.1-0.1,0.2-0.1c0.2-0.1,0.3-0.1,0.5-0.2
			c0.1,0,0.1-0.1,0-0.2c0.1,0,0.2-0.1,0.4-0.1c0.2,0,0.4,0,0.5,0c0,0,0.1-0.1,0.1-0.1c0,0-0.1-0.1-0.1-0.1c-0.1,0-0.2,0-0.3,0
			c0.4-0.1,0.7-0.2,1.1-0.3c0,0,0,0,0-0.1c-0.1,0-0.2,0-0.3,0c0,0,0,0,0,0c0.1,0,0.1-0.1,0.2-0.1c0.1,0,0.2-0.1,0.3-0.1
			c0.1,0,0.2-0.1,0.3-0.1c0.1,0,0.2-0.1,0.3-0.1c0,0,0-0.1,0-0.1c-0.1-0.1-0.2-0.1-0.4,0c-0.1,0.1-0.3,0.1-0.4,0.2
			c-0.1,0-0.2,0.1-0.3,0.1c-0.1,0-0.1,0-0.1-0.1c0,0,0-0.1,0-0.1c-0.4,0.2-0.7,0.4-1.1,0.6c0,0,0-0.1-0.1-0.1
			c-0.3,0.1-0.6,0.3-0.9,0.4c0,0,0,0,0,0c0-0.1,0.1-0.1,0.1-0.2c0,0,0-0.1,0-0.1c0,0-0.1,0-0.1,0c-0.2,0.1-0.4,0.2-0.6,0.3
			c0,0,0,0,0,0.1c0,0,0,0,0,0c0-0.1,0-0.1,0-0.2c-0.3,0.2-0.5,0.3-0.8,0.5c0-0.1,0.1-0.2,0.1-0.3c-0.1-0.1-0.1,0-0.2,0
			c-0.1,0.1-0.3,0.2-0.4,0.3c0,0-0.1,0-0.1,0C9,24.8,9,24.7,9,24.7c0,0,0,0,0,0c-0.2,0-0.3,0.2-0.6,0.3c0,0,0,0,0.1-0.3
			c0,0-0.1,0-0.1,0c-0.1,0-0.2,0.1-0.3,0.1c-0.1,0-0.2,0.1-0.3,0.1c-0.1,0-0.1,0.1-0.2,0.1c0,0-0.1,0-0.1,0c0-0.1,0.2-0.2,0.1-0.4
			c-0.3,0.2-0.6,0.3-0.9,0.4c0,0,0,0,0,0c0-0.1,0.1-0.2,0.1-0.3c-0.3,0-0.4,0.2-0.7,0.2c0-0.1,0-0.2,0.1-0.3
			c-0.2,0.1-0.3,0.1-0.5,0.2c-0.1-0.1-0.1-0.1-0.2,0C5.5,24.9,5.4,25,5.2,25c0,0,0,0-0.1,0c0,0,0-0.1,0.1-0.1c0,0,0,0,0,0
			c0,0-0.1,0-0.1,0C4.9,25,4.8,25,4.6,25.1c0-0.1,0-0.1,0-0.1c0,0,0,0-0.1,0c-0.1,0.1-0.2,0.1-0.3,0.2c0,0-0.1,0-0.1,0c0,0,0,0,0,0
			c0.1-0.1,0.2-0.2,0.3-0.3c0,0,0-0.1,0-0.1c0,0,0-0.1,0-0.1c0,0,0.1,0,0.1,0c0.2,0,0.3-0.1,0.5-0.1c0.1,0,0.1-0.1,0-0.2
			c0,0,0,0,0,0c0.1,0,0.2-0.1,0.3-0.1C5.4,24,5.5,24,5.7,24c0.1,0,0.2-0.1,0.1-0.2c0-0.1,0-0.2,0.2-0.2c0.2,0,0.4,0,0.5,0
			c0,0,0.1,0,0.2,0c-0.1-0.1-0.2-0.2-0.3-0.3c0.1,0,0.1-0.1,0.2-0.1c0.1,0,0.3-0.1,0.5-0.1c0,0,0.1,0,0.1,0c0.1,0,0.2-0.1,0.3-0.1
			c0,0,0,0,0,0c-0.1,0-0.2-0.1-0.3-0.2c0.3-0.1,0.7-0.1,1-0.2c0,0,0,0,0,0c0-0.1,0-0.1-0.1-0.2c0.1,0,0.1,0,0.2,0c0.3,0,0.5,0,0.8,0
			c0-0.1,0-0.1,0-0.2c0.2,0.1,0.4,0.1,0.6,0.2c0,0,0,0,0.1,0c0,0,0.1,0,0.1,0c0,0,0-0.1,0-0.1c0-0.1,0-0.1,0-0.2c0.1,0,0.1,0,0.2,0
			c0,0,0.1,0,0.1,0c0,0,0.1,0,0.1,0c0.1,0.1,0.2,0.1,0.2-0.1c0,0,0.1,0,0.2,0c0.1,0,0.2,0.1,0.3,0.1c0.1,0,0.3,0.1,0.4,0.1
			c0.1,0,0.1,0.1,0.2,0.1c0.1,0,0.2,0,0.2,0c0.2,0.1,0.2,0.1,0.3-0.2c-0.1,0-0.2,0-0.4,0c-0.3-0.1-0.5-0.1-0.8-0.1
			c-0.1,0-0.2-0.1-0.3-0.1c0.1-0.1,0.2-0.1,0.3-0.2c0,0,0,0,0,0c-0.1,0-0.1,0-0.2,0c-0.4,0-0.9,0-1.3-0.1c-0.2,0-0.3-0.1-0.5-0.1
			c0.1-0.1,0.3-0.2,0.4-0.3c-0.1,0-0.1,0-0.1,0c-0.3,0-0.6-0.1-0.9-0.1c-0.1,0-0.2,0-0.3,0c0.1-0.1,0.2-0.2,0.4-0.3
			c-0.4-0.2-0.8-0.2-1.2-0.3c0,0,0,0,0,0c0.1,0,0.2-0.1,0.4-0.1c-0.1-0.1-0.1-0.1-0.2-0.1c-0.1,0-0.2-0.1-0.3-0.1
			c-0.2,0-0.3-0.1-0.5-0.1c-0.2,0-0.3-0.1-0.5-0.1c0,0,0,0,0,0c0.1,0,0.3-0.1,0.4-0.1c0,0,0,0,0,0c-0.1,0-0.1-0.1-0.2-0.1
			c-0.2-0.1-0.3-0.1-0.5-0.1c0,0-0.1,0-0.1,0c-0.2,0-0.3-0.1-0.5-0.1c0.2-0.1,0.3-0.2,0.5-0.3c0,0,0,0,0,0c-0.4-0.1-0.7-0.2-1.1-0.3
			C5,18.7,5,18.6,5.1,18.6c0,0,0.1-0.1,0.1-0.1c0,0-0.1-0.1-0.1-0.1c-0.2-0.1-0.3-0.1-0.5-0.1c-0.1,0-0.3-0.1-0.4-0.1
			C4.3,18.1,4.4,18,4.5,18c0,0,0.1,0,0.1-0.1c0,0-0.1-0.1-0.1-0.1c-0.2-0.1-0.4-0.1-0.5-0.2c-0.1,0-0.3-0.1-0.4-0.2
			c0,0,0.1-0.1,0.1-0.1c0,0,0.1-0.1,0.1-0.1c0,0-0.1-0.1-0.1-0.1C3.5,17.1,3.4,17,3.2,17c0,0,0-0.1,0-0.1c0,0,0,0,0.1,0
			c0,0,0.1-0.1,0.1-0.1c-0.1,0-0.1-0.1-0.2-0.1c-0.1,0-0.2-0.1-0.3-0.1c0,0,0-0.1,0-0.1c0,0,0.1-0.1,0.1-0.1c0.1-0.1,0.1-0.2,0-0.3
			c-0.2-0.1-0.4-0.2-0.5-0.3c0.2-0.2,0.2-0.2,0-0.3c0,0-0.1,0-0.1-0.1c0,0-0.1-0.1-0.1-0.1c0,0,0-0.1,0.1-0.1c0,0,0.1,0,0.2,0
			C2.2,15,2,14.9,1.8,14.8c0.1,0,0.1,0,0.2,0c0,0,0.1,0,0.1,0c0.1,0,0.2,0,0.3,0.1c0.1,0,0.2,0,0.2-0.1c0,0,0,0,0-0.1
			C2.7,14.8,2.9,14.9,3,15c0,0,0-0.1,0-0.1c0-0.1,0.1-0.1,0.1,0c0.1,0.1,0.2,0.2,0.2,0.3c0.1-0.1,0.2-0.1,0.3-0.2
			c0.1,0.1,0.2,0.2,0.3,0.3c0,0,0.1,0,0.1,0c0.1,0,0.1-0.1,0.2-0.1c0.1,0,0.1-0.1,0.1,0c0.1,0.1,0.2,0.3,0.3,0.4
			c0,0.1,0.1,0.1,0.1,0.1C5,15.6,5,15.5,5.1,15.4c0.2,0.2,0.4,0.4,0.5,0.6c0.1,0.1,0.2,0.1,0.3,0c0,0,0.1-0.1,0.1-0.1
			c0,0,0.1,0.1,0.1,0.1c0.1,0.1,0.2,0.3,0.3,0.4c0.2,0.2,0.2,0.2,0.3,0c0-0.1,0.1-0.1,0.1-0.2C6.9,16.3,7,16.3,7,16.4
			c0.1,0.1,0.1,0.2,0.2,0.2c0,0.1,0.1,0.1,0.2,0c0-0.1,0.1-0.1,0.1-0.2c0.1,0.2,0.2,0.4,0.4,0.6C7.9,17,8,17,8,16.9
			c0.1-0.1,0.1,0,0.1,0c0.1,0.1,0.1,0.2,0.2,0.3c0.1,0.1,0.1,0.2,0.2,0.4c0.1-0.1,0.2-0.1,0.2-0.2c0.1,0.1,0.2,0.2,0.3,0.4
			c0.1,0.1,0.2,0.3,0.3,0.5c0,0,0.1,0,0.1,0c0.1-0.1,0.1-0.3,0.2-0.4c0.1,0.1,0.1,0.2,0.2,0.2c0.1,0.2,0.3,0.4,0.4,0.7
			c0,0.1,0.1,0.1,0.2,0.2c0.1-0.1,0.2-0.2,0.2-0.3c0.1,0.1,0.1,0.3,0.2,0.4c0.1,0.2,0.2,0.4,0.2,0.5c0,0,0.1,0,0.1,0.1
			c0.1-0.2,0.2-0.3,0.3-0.5c0.1,0.2,0.1,0.3,0.2,0.5c0.1,0,0.2,0,0.3,0c0,0,0.1,0,0.1-0.1c0,0,0-0.1,0-0.1c-0.2-0.2-0.5-0.4-0.7-0.5
			c-0.2-0.1-0.3-0.3-0.5-0.4c0.1,0,0.2,0,0.3,0c0,0,0.1,0,0.1,0c0,0,0-0.1,0-0.1c-0.1-0.1-0.3-0.2-0.4-0.4c-0.2-0.1-0.3-0.3-0.5-0.4
			c0,0-0.2,0-0.1-0.1c0.2-0.1,0.4,0.1,0.5-0.1c-0.5-0.2-0.9-0.5-1.4-0.7c0,0,0,0,0,0c0.2,0,0.4-0.1,0.6-0.1
			c-0.1-0.1-0.2-0.2-0.3-0.3c-0.1-0.1-0.2-0.2-0.4-0.3c-0.1-0.1-0.2-0.1-0.3-0.2c0,0,0-0.1,0-0.1c0,0,0,0,0.1,0c0.1,0,0.1,0,0.2,0
			c0,0,0.1,0,0.1,0c0,0,0-0.1,0-0.1c-0.2-0.1-0.3-0.2-0.5-0.3c-0.2-0.1-0.3-0.2-0.5-0.3c0,0,0,0,0,0c0.1-0.1,0.3-0.1,0.4-0.2
			c0.1,0,0.1-0.1,0-0.1c-0.1-0.1-0.3-0.2-0.4-0.3c-0.2-0.2-0.4-0.3-0.6-0.5c0-0.1,0.1-0.1,0.2-0.1c0.1,0,0.3,0,0.3-0.1
			c-0.3-0.3-0.6-0.6-0.9-0.8c0.1,0,0.3-0.1,0.4-0.1c-0.1-0.2-0.3-0.3-0.4-0.5c-0.1-0.1-0.3-0.3-0.4-0.4c-0.1-0.1,0.1-0.1,0.1-0.1
			c0.1,0,0.2,0,0.2,0c0.1,0,0.1-0.1,0.1-0.2c-0.1-0.1-0.2-0.3-0.3-0.4c-0.1-0.1-0.3-0.3-0.4-0.4c0.1,0,0.2,0,0.3,0c0,0,0.1,0,0.1,0
			c0,0,0-0.1,0-0.1c-0.1-0.2-0.2-0.4-0.3-0.6C6.6,9.6,6.5,9.5,6.4,9.4c0.2,0,0.3,0,0.5,0C6.7,9,6.4,8.8,6.2,8.5c0.1,0,0.2,0,0.3,0
			c0-0.2-0.2-0.4-0.3-0.6c0.1,0,0.1,0,0.2-0.1c0.1,0,0.2,0,0.2,0c0.1,0,0.1-0.1,0.1-0.1C6.6,7.5,6.5,7.4,6.4,7.2
			C6.4,7.1,6.3,7,6.2,6.9c0.1,0,0.2,0,0.4,0C6.5,6.7,6.4,6.5,6.3,6.3c0.1,0,0.1,0,0.1,0C6.4,6.1,6.3,5.9,6.2,5.8
			c0.2-0.1,0.2-0.1,0.1-0.3c-0.1-0.1-0.1-0.1,0-0.2c0,0,0.1-0.1,0.1-0.1c0-0.1,0-0.2,0-0.2c0,0,0,0,0,0c0,0.1,0.1,0.1,0.1,0.2
			c0,0,0.1,0,0.1,0c0,0,0.1,0.1,0.1,0.1c0,0.1,0.1,0.2,0.1,0.3c0.1,0,0.1-0.1,0.2-0.1C7,5.8,7,5.9,7,6c0,0.2,0,0.2,0.2,0.1
			c0,0,0.1,0,0.1,0c0,0.2,0,0.3-0.1,0.5c0.1,0,0.1,0,0.2,0c0.1,0,0.1,0,0.1,0.1c0,0.1,0,0.2,0,0.3c0,0,0,0.1,0,0.1
			c0.1-0.1,0.2-0.1,0.3-0.2c0,0.1,0,0.2-0.1,0.4c0,0.1,0,0.1,0,0.2c0,0.1,0.1,0,0.1,0c0,0,0,0,0,0c0,0,0.1-0.1,0.2-0.1
			c0,0.1,0,0.2,0,0.3c0,0.1,0,0.2,0,0.3c0,0.1,0.1,0.1,0.1,0C8.3,8,8.4,8,8.5,7.9c0,0.1,0.1,0.2,0.1,0.4c0,0.1,0.1,0.2,0.1,0.3
			c0,0.1,0.1,0.1,0.1,0c0,0,0.1,0,0.1-0.1c0.1,0.2,0.1,0.4,0.3,0.6c0,0,0,0,0,0c0,0,0.1-0.1,0.1-0.1C9.4,9,9.5,9,9.5,9.1
			c0.1,0.2,0.1,0.3,0.2,0.5c0,0.1,0.1,0.1,0.3,0c0.1,0.3,0.1,0.6,0.3,0.8c0.1,0,0.2-0.1,0.2-0.2c0,0,0,0,0,0c0,0.2,0.1,0.5,0.1,0.7
			c0,0.1,0,0.2,0,0.2c0.1,0,0.1,0,0.2,0c0,0,0,0,0,0c0,0.1,0.1,0.2,0.1,0.2c0,0.2,0.1,0.4,0.1,0.5c0,0.1,0,0.2,0,0.2
			c0,0,0,0.1,0.1,0.1s0.1,0,0.1,0c0.1-0.1,0.2-0.2,0.3-0.2c0,0,0,0,0,0c0,0.3,0.1,0.5,0.1,0.8c0,0.2,0,0.4,0.1,0.6
			c0.1,0,0.2-0.1,0.3-0.1c0.1,0,0.1,0,0.1,0.1c0,0.3,0.1,0.6,0.1,0.9c0,0.1,0.1,0.1,0.1,0.2c0.1,0,0.2-0.1,0.3-0.1
			c0,0.1,0,0.2,0,0.3c0,0.2,0.1,0.4,0.1,0.5c0,0.1,0,0.2,0,0.3c0,0.1,0,0.2,0.1,0.2c0-0.1,0.1-0.2,0.3-0.2c0,0.4,0,0.9,0,1.3
			c0,0,0,0,0,0c0.1-0.1,0.3,0,0.3-0.2c0.1,0.5-0.1,0.9,0,1.4c0.2-0.1,0.4-0.3,0.5-0.4c0,0,0,0,0,0c0,0.1,0,0.1,0,0.2
			c0,0.3,0,0.6,0,0.9c0,0.1,0,0.2,0.1,0.1c0.1,0,0.1,0,0.1,0.1c0.1,0.3,0.1,0.6,0.1,1c0,0,0,0,0,0.1c0,0,0,0,0,0
			c0.1,0,0.2,0,0.2-0.1c0,0,0-0.1,0-0.2c0,0,0-0.1,0-0.1c0,0,0.1,0,0.1,0c0,0,0.1,0,0.1,0c0.1,0,0.2-0.1,0.1-0.2
			c-0.1-0.1-0.1-0.3-0.2-0.4c-0.1-0.1-0.1-0.3-0.2-0.4c-0.1-0.1-0.1-0.3-0.2-0.4c0-0.1-0.1-0.2-0.1-0.3c0-0.1-0.1-0.1-0.1-0.2
			c0,0,0,0,0,0c0.2,0,0.3,0.1,0.5,0.1c0-0.1,0-0.2,0-0.3c-0.1,0-0.2-0.1-0.2-0.3c0-0.2-0.1-0.3-0.1-0.5c0-0.1-0.2-0.1-0.1-0.1
			c0-0.1-0.1-0.2-0.1-0.2c0-0.1-0.1-0.2-0.1-0.4c0.2,0,0.3,0,0.5,0c0-0.2-0.1-0.3-0.1-0.5c0-0.2,0-0.2,0.2-0.1c0,0,0,0,0,0
			c0,0-0.1,0-0.1,0c-0.1,0-0.2,0-0.1-0.1c0-0.1-0.1-0.2,0.1-0.3c0,0-0.1,0-0.1-0.1c0,0,0,0,0,0c0.1,0,0.1-0.1,0.2-0.1
			c0,0,0.1,0,0.1,0c0,0,0-0.1,0-0.1c0-0.1,0-0.1-0.1-0.2c0-0.1-0.1-0.2-0.1-0.3c0-0.1-0.1-0.1-0.1-0.2c0-0.1-0.1-0.2-0.1-0.4
			c0.1,0,0.1,0.1,0.2,0.1c0,0,0.1,0,0.1,0.1c0-0.1,0-0.1,0-0.2c0-0.2-0.1-0.3-0.1-0.5c0-0.1-0.1-0.3-0.1-0.4c0,0,0-0.1,0-0.1
			c0,0,0.1,0,0.1,0c0,0,0.1,0,0.1,0c0,0,0-0.1,0-0.1c0,0,0,0,0,0c0-0.2-0.1-0.3-0.1-0.5c0-0.1,0-0.2-0.1-0.3c0-0.1,0-0.1,0.1-0.1
			c0.1,0,0.2,0,0.4,0c0-0.1,0-0.2-0.1-0.3c0,0,0,0,0,0c0-0.2-0.1-0.4-0.1-0.5c0-0.1-0.1-0.2-0.1-0.4c0.1-0.1,0.3,0.1,0.4,0
			c0-0.1,0-0.2,0-0.3c0-0.2-0.1-0.5-0.1-0.7c0-0.1,0-0.1-0.1-0.2c0,0,0,0,0,0C14.9,9,15,9.1,15.1,9.2c0,0,0.1,0,0.1,0
			c0,0,0-0.1,0-0.1c0-0.1,0-0.1-0.1-0.2c0-0.2-0.1-0.3-0.1-0.5c0,0,0-0.1,0-0.1c0-0.1,0-0.1,0-0.1c0,0,0-0.1,0-0.1c0,0,0.1,0,0.1,0
			c0.1,0.1,0.3,0.1,0.3,0c0-0.1,0-0.1,0-0.2c0-0.3-0.1-0.6-0.1-1c0-0.1,0-0.1-0.1-0.2c0,0,0,0,0,0c0,0,0.1,0,0.1,0
			c0.2,0.1,0.3,0,0.3-0.1c0-0.2,0-0.5,0-0.7c0,0,0-0.1,0.1-0.1c0,0,0.1,0,0.2,0c0,0,0.1,0,0.1,0c0,0,0,0,0,0c0-0.3,0.1-0.6,0.1-1
			c0-0.1,0-0.1,0.1-0.1c0.1,0,0.2,0,0.2-0.1c0-0.1,0-0.1,0-0.2c0-0.2,0.1-0.4,0.1-0.6c0.1,0,0.1,0.1,0.2,0.1c0-0.2,0.1-0.3,0.1-0.4
			c0-0.1,0-0.1,0.1-0.1c0.1,0,0.1,0,0.1-0.1c0-0.1,0-0.2,0.1-0.2c0,0,0-0.2,0-0.3c0,0,0-0.1,0-0.1c0.1,0,0.1,0,0.2,0c0,0,0,0,0.1,0
			c0-0.1,0-0.2,0-0.2c0-0.1,0-0.1-0.1-0.2c0.1,0,0.1,0,0.2,0.1c0-0.1,0-0.2,0-0.4c0.1,0,0.1,0,0.2,0.1c0.1-0.1,0.2-0.2,0.2-0.3
			c0,0.1,0,0.2,0,0.2c0,0,0,0.1,0.1,0.1c0.1,0,0.1,0.1,0.1,0.2c0,0,0,0.1-0.1,0.2c0.1,0,0.1,0,0.2,0c0,0,0,0.1,0,0.1
			c-0.1,0.1-0.1,0.2,0,0.3C18.2,2.8,18.1,2.9,18,3c-0.1,0.1,0,0.1,0.1,0.2c0,0,0.1,0.1,0.1,0.1c-0.1,0.1-0.1,0.2-0.2,0.4
			c0,0,0,0,0,0c0.2,0.1,0.2,0.1,0.1,0.2C18,3.9,17.9,4,17.9,4.1c0.1,0,0.1,0,0.2,0c0,0.1-0.1,0.1-0.1,0.2c0,0.1-0.1,0.2-0.1,0.3
			c0,0,0,0.1,0,0.1c0.1,0,0.1,0,0.2,0C18,4.8,18,4.8,18,4.9c0,0.1-0.1,0.1,0,0.2c0,0,0.1,0,0.2,0.1c0,0,0.1,0,0.1,0
			c0,0.1-0.1,0.3-0.1,0.4c0,0.1,0,0.1,0.1,0.1c0.1,0,0.2,0.1,0.1,0.2c-0.1,0.2-0.1,0.4-0.2,0.6c0,0,0,0,0,0.1
			c-0.1,0.1,0,0.1,0.1,0.2c0,0,0.1,0,0.1,0c0.1,0,0.2,0.1,0.1,0.2c-0.1,0.1-0.1,0.2-0.1,0.3c-0.1,0.1-0.1,0.3-0.1,0.4
			c-0.1,0.1,0,0.3,0.1,0.3c0.1,0,0.1,0.1,0.2,0.1c-0.1,0.2-0.3,0.4-0.3,0.7c0.1,0,0.2,0,0.4,0c-0.1,0.2-0.2,0.4-0.3,0.7
			c0,0.1-0.1,0.1-0.1,0.2c-0.1,0.1,0,0.2,0.1,0.2c0.1,0,0.1,0,0.2,0c0.1,0,0.1,0.1,0.1,0.1c-0.1,0.2-0.2,0.3-0.3,0.5
			c-0.1,0.1,0,0.2,0.1,0.2c0.2,0,0.2,0.1,0.1,0.3c-0.1,0.1-0.1,0.2-0.1,0.3c0,0.1-0.1,0.1-0.1,0.2c0,0.1-0.1,0.2-0.1,0.3
			c0,0.1-0.1,0.2,0.1,0.2c0.1,0,0.1,0.1,0.2,0.1c0.1,0,0.1,0.1,0,0.2c-0.1,0.2-0.3,0.3-0.4,0.5c-0.1,0.1,0,0.1,0.1,0.2
			c0,0,0.1,0.1,0.2,0.1c0.1,0.1,0.1,0.1,0,0.2c-0.1,0.2-0.2,0.4-0.3,0.6c0,0.1-0.1,0.1-0.1,0.3c0.2,0,0.3,0,0.5,0
			c-0.3,0.3-0.4,0.7-0.8,1c0.2,0,0.4,0,0.7,0c-0.1,0.2-0.3,0.5-0.4,0.7c-0.1,0.2-0.2,0.4-0.3,0.6c0.2,0.1,0.4-0.1,0.5-0.1
			c0,0,0,0.1,0,0.1c-0.2,0.1-0.2,0.3-0.3,0.4c-0.1,0.1-0.1,0.2-0.2,0.3c-0.1,0.2-0.2,0.3-0.3,0.5c0,0,0,0.1-0.1,0.1
			c0.1,0,0.2,0.1,0.3,0.1c0.1,0,0.1,0.1,0.2,0.1c0,0,0.1,0,0.1,0c0,0,0.1,0,0.1-0.1c0-0.1,0-0.1,0-0.2c0-0.1,0-0.3,0.1-0.4
			c-0.1-0.3,0-0.5,0.1-0.7c0.1,0.1,0.2,0.3,0.3,0.4c0,0,0,0,0,0c0-0.1,0-0.1,0-0.2c0-0.3,0-0.6,0.1-0.9c0-0.1,0.1-0.2,0.1-0.3
			c0.1,0.1,0.3,0.2,0.4,0.2c0-0.1,0-0.1,0-0.2c0-0.1,0-0.3,0.1-0.4c0-0.1,0-0.3,0-0.4c0-0.1,0-0.1,0-0.3c0.1,0.1,0.2,0.2,0.3,0.3
			c0.1,0.1,0.1,0,0.1,0c0,0,0,0,0,0c0-0.2,0.1-0.4,0.1-0.6c0,0,0-0.1,0-0.1c0,0,0-0.1,0.1-0.1c0,0,0.1,0,0.1,0
			c0.1,0,0.1,0.1,0.2,0.1c0,0,0.1,0,0.1,0c0.1-0.1,0.1-0.3,0.2-0.4c0.1-0.1,0.1-0.3,0.2-0.4c0-0.1,0.1-0.1,0.1-0.2
			c0.1,0.1,0.1,0.2,0.1,0.3c0,0,0,0,0,0c0.2-0.3,0.3-0.7,0.5-1c0.1,0.1,0.3,0.2,0.4,0.4c0.1-0.3,0.2-0.6,0.4-1c0.1,0,0.1,0,0.1,0.1
			c0,0.1,0.1,0.1,0.1,0.2c0,0.1,0.1,0,0.2-0.1c0.1-0.2,0.2-0.4,0.2-0.5c0-0.1,0.1-0.2,0.2-0.3c0.1,0.1,0.1,0.1,0.2,0.2
			c0,0,0.1,0,0.1,0c0.1-0.2,0.3-0.4,0.4-0.6c0,0,0,0.1,0,0.1c0,0,0,0.1,0.1,0.1c0,0,0.1,0,0.1,0c0.1-0.1,0.2-0.2,0.3-0.4
			c0.1-0.1,0.1-0.1,0.1,0c0,0.1,0.1,0.1,0.1,0.2c0.1-0.2,0.3-0.4,0.4-0.5c0,0.1,0.1,0.1,0.1,0.2c0.1-0.1,0.3-0.3,0.5-0.4
			c0,0.1,0,0.1,0.1,0.2c0.1-0.2,0.3-0.3,0.4-0.5c0,0,0.1,0,0.1,0.1c0.1-0.1,0.1-0.2,0.2-0.3c0,0,0,0.1,0.1,0.1
			c0.1,0.1,0.1,0.1,0.1,0c0-0.1,0.1-0.1,0.1-0.2c0,0.1,0,0.1,0.1,0.2c0.1-0.1,0.2-0.2,0.3-0.3c0,0,0,0,0,0.1c0,0.1,0,0.1,0.1,0.1
			c0.1,0,0.1-0.1,0.1-0.1c0-0.1,0-0.1,0.1-0.2c0,0,0.1,0,0.1,0c0.2,0.1,0.3,0.1,0.4-0.1c0,0,0,0,0.1-0.1c0,0.1,0,0.1,0,0.1
			c-0.1,0.1-0.2,0.2-0.1,0.4c-0.1,0-0.2,0.1-0.3,0.1c0,0.1,0,0.1,0.1,0.2c-0.1,0.1-0.3,0.2-0.4,0.3c0,0,0,0,0.1,0.1
			c-0.1,0.2-0.4,0.2-0.5,0.4c0.1,0,0.1,0,0.1,0c0,0,0,0,0,0.1c0,0,0,0,0,0.1c-0.2,0.1-0.3,0.2-0.5,0.3c0.1,0.1,0.1,0.1,0.2,0.1
			c0.1,0.1,0,0.1,0,0.1c-0.1,0-0.2,0.1-0.3,0.1c-0.1,0-0.1,0.1,0,0.1c0.1,0,0.1,0.1,0.2,0.1c-0.3,0.2-0.5,0.3-0.9,0.5
			c0.2,0.1,0.3,0.2,0.4,0.2c-0.3,0.2-0.6,0.3-0.9,0.5c0.1,0,0.1,0.1,0.2,0.1c0.1,0,0.2,0.1,0.3,0.1c0,0,0,0,0,0.1c0,0,0,0.1-0.1,0.1
			c-0.2,0.1-0.4,0.1-0.5,0.2c0,0-0.1,0.1-0.2,0.1c0.1,0.1,0.2,0.1,0.4,0.2c-0.1,0.1-0.2,0.2-0.3,0.2c-0.1,0.1-0.3,0.2-0.4,0.3
			c-0.1,0-0.2,0-0.1,0.1c0,0.1,0.1,0.1,0.1,0.2c0,0,0.1,0.1,0.1,0.1c-0.2,0.1-0.4,0.2-0.6,0.3C23.1,15,23,15,22.9,15
			c-0.1,0-0.2,0.1-0.2,0.1c0,0,0,0,0,0.1c0,0,0,0.1,0,0.1c0.1,0.1,0.2,0.1,0.4,0.2c0,0,0.1,0.1,0.2,0.1c-0.1,0.1-0.3,0.1-0.4,0.2
			c-0.2,0.1-0.3,0.1-0.5,0.2c-0.1,0-0.1,0.1,0,0.2c0.1,0.1,0.3,0.3,0.4,0.4c-0.2,0.1-0.4,0.1-0.6,0.2c-0.2,0.1-0.3,0.1-0.5,0.2
			c0,0,0,0.1,0,0.1c0.1,0.1,0.2,0.2,0.3,0.3c-0.1,0-0.2,0.1-0.2,0.1c-0.1,0-0.3,0.1-0.4,0.1c0,0,0,0-0.1,0c-0.1,0-0.2,0-0.3,0.1
			c0,0,0,0.1,0,0.1c0.1,0.1,0.1,0.2,0.2,0.2c-0.3,0.2-0.7,0.3-1,0.5c0.1,0.1,0.1,0.1,0.2,0.2c0.1,0.1,0,0.1,0,0.1
			c-0.1,0.1-0.2,0.1-0.3,0.1c-0.1,0.1-0.3,0.1-0.5,0.2c0,0.1,0.1,0.2,0.1,0.3c0.1,0.1,0,0.1-0.1,0.2c-0.1,0-0.3,0.1-0.4,0.2
			c-0.1,0-0.1,0.1,0,0.2c0,0,0,0.1,0.1,0.1c-0.3,0.1-0.5,0.2-0.8,0.3c0,0,0,0,0,0.1c0.1,0.1,0,0.1,0,0.1c-0.1,0.1-0.2,0.2-0.4,0.2
			c-0.1,0,0,0.1,0,0.2c-0.1,0.1-0.1,0.2,0.1,0.4c0.2-0.3,0.5-0.5,0.7-0.8c0,0.1,0.1,0.3,0.1,0.4c0.3-0.4,0.5-0.8,0.8-1.1
			c0.1,0.2,0.1,0.4,0.2,0.6c0.1-0.1,0.2-0.2,0.3-0.4c0.1-0.1,0.1-0.2,0.2-0.3c0.1-0.1,0.2-0.2,0.2-0.3c0,0.1,0,0.1,0.1,0.2
			c0,0,0,0.1,0.1,0.2c0.1,0.1,0.2,0,0.2-0.1c0.2-0.3,0.5-0.5,0.7-0.8c0.1,0.2,0.1,0.4,0.2,0.6c0.3-0.3,0.5-0.6,0.7-0.8
			c0.1,0.1,0.1,0.1,0.2,0.2c0.1-0.1,0.2-0.3,0.3-0.4c0,0,0.1-0.1,0.1-0.1c0.1-0.1,0.2-0.1,0.3,0c0,0,0.1,0.1,0.1,0.1
			c0.1-0.2,0.3-0.4,0.4-0.5c0.1,0.1,0.1,0.2,0.2,0.3c0.2-0.2,0.3-0.4,0.5-0.6c0.1,0.1,0.1,0.3,0.2,0.4c0,0,0,0.1,0.1,0.1
			c0,0,0.1,0,0.1,0c0.2-0.2,0.4-0.4,0.6-0.6c0.1,0.1,0.1,0.2,0.2,0.3c0.3-0.2,0.5-0.4,0.8-0.6c0.1,0.1,0.1,0.2,0.2,0.4
			c0.2-0.2,0.3-0.4,0.5-0.5c0.1,0.1,0.1,0.1,0.2,0.2c0.1,0.1,0.2,0.1,0.3,0c0,0,0.1-0.1,0.1-0.1c0.1-0.1,0.2-0.1,0.3,0
			c0.1,0.1,0.2,0.1,0.3,0c0,0,0.1-0.1,0.1-0.1c0,0,0.1-0.1,0.1-0.1c0,0.1,0.1,0.1,0.1,0.2c0.1-0.1,0.3-0.1,0.4-0.2
			c0,0.1,0,0.1,0,0.2c0.2,0,0.3,0,0.5,0c0.1,0,0.2,0,0.3,0c0,0,0,0,0,0c-0.2,0.1-0.4,0.2-0.6,0.3c0.1,0.1,0.2,0.1,0.2,0.2
			c-0.1,0.1-0.2,0.1-0.4,0.2c-0.1,0-0.1,0.1-0.1,0.2c0,0,0,0.1,0.1,0.1c-0.3,0.1-0.5,0.2-0.8,0.3c0.1,0.1,0.1,0.1,0.2,0.2
			c0,0,0,0.1,0,0.2c0,0-0.1,0-0.1,0c-0.2,0-0.3,0-0.5,0.1c0,0,0.1,0.1,0.1,0.1c0,0,0,0.1,0,0.1c0,0,0,0-0.1,0
			c-0.1,0-0.3,0.1-0.4,0.1c-0.1,0-0.1,0.1,0,0.2c0,0.1,0.1,0.1,0.1,0.2c-0.4,0.1-0.7,0.1-1.1,0.2c0,0.2,0.2,0.2,0.3,0.3
			c-0.1,0-0.2,0.1-0.2,0.1c-0.1,0-0.2,0-0.3,0c-0.1,0-0.3,0.1-0.5,0.1c0.1,0.1,0.2,0.2,0.3,0.2c0,0,0,0,0,0c-0.3,0-0.6,0.1-0.8,0.1
			c-0.1,0-0.2,0-0.3,0.1c0,0,0,0,0,0c0.1,0.1,0.2,0.2,0.4,0.3c-0.1,0-0.1,0-0.1,0c-0.4,0-0.7,0.1-1.1,0.1c0,0-0.1,0-0.1,0.1
			c0,0,0,0.1,0,0.1c0,0,0.1,0.1,0.1,0.1c0.1,0,0.2,0.1,0.2,0.1c0,0-0.1,0-0.1,0c-0.2,0-0.3,0-0.5,0c-0.3,0.1-0.5,0-0.8,0.1
			c0,0-0.1,0-0.1,0.1s0,0.1,0.1,0.1c0.1,0.1,0.2,0.1,0.3,0.2c0,0-0.1,0-0.1,0c-0.2,0-0.3,0-0.5,0c-0.2,0-0.5,0.1-0.7,0.1
			c0,0.2,0.2,0.2,0.2,0.3c-0.2,0-0.3,0-0.5,0c0,0,0,0-0.1,0c-0.2,0-0.4,0-0.6,0c0,0-0.1,0-0.1,0c0.1,0.1,0.2,0.2,0.3,0.3
			c0,0,0,0,0,0c0,0-0.1,0-0.1,0c-0.1,0-0.2,0-0.4,0c-0.2,0-0.4-0.1-0.6-0.1c-0.2,0-0.4,0-0.6,0c-0.1,0-0.1,0-0.2-0.1
			c0,0-0.1,0-0.1,0.1c0,0,0,0.1,0.1,0.1c0.1,0.1,0.1,0.1,0.2,0.2c-0.5-0.1-1-0.1-1.5-0.1c0.1,0.2,0.2,0.3,0.4,0.2c0,0,0,0.1,0,0.1
			c0.1,0,0.3,0,0.4-0.1c0,0,0,0,0,0c0.3,0,0.6-0.1,0.9-0.1c0,0,0,0.1,0,0.1c0.2,0,0.4,0,0.7,0c0,0.1-0.1,0.1-0.1,0.2
			c0,0.1,0,0.1,0.1,0.1c0.1,0,0.1,0,0.2-0.1c0.1,0,0.3-0.1,0.4-0.1c0,0,0.1,0,0.1,0c0,0.1,0,0.1,0,0.2c0,0,0,0,0,0
			c0.3,0,0.6,0.1,0.8,0.1c0,0,0.1,0,0.1,0c0,0,0,0.1-0.1,0.1c0,0,0,0.1,0,0.1c0.3,0.1,0.5,0.2,0.9,0.3c-0.1,0-0.2,0.1-0.2,0.1
			c0,0,0,0.1,0.1,0.1c0.2,0.1,0.3,0.1,0.5,0.2c0.1,0,0.2,0.1,0.3,0.1c0.1,0,0.1,0.1,0.1,0.1c-0.1,0.1-0.2,0.2-0.4,0.3c0,0,0,0,0,0
			c0.3,0,0.5,0.1,0.8,0.1c0,0.1-0.1,0.2-0.1,0.3c0.2,0.1,0.3,0.2,0.5,0.2c0.1,0,0.2,0.1,0.2,0.1c0,0,0,0.1,0,0.1
			c-0.1,0.1-0.1,0.2,0.1,0.2c0.1,0,0.3,0.1,0.4,0.2c0.1,0,0.1,0.1,0,0.1c-0.1,0-0.1,0.1,0,0.1c0.1,0.1,0.2,0.2,0.2,0.3
			c0,0,0,0.1,0,0.1c-0.1-0.1-0.2-0.1-0.3-0.2c-0.1-0.1-0.2-0.1-0.2,0c-0.2-0.1-0.3-0.2-0.5-0.3c0,0.1,0,0.1,0,0.1
			c-0.2-0.1-0.3-0.3-0.6-0.2c-0.1,0-0.2-0.3-0.4-0.2c0,0.1,0,0.1,0.1,0.2c0,0,0,0,0,0c-0.2-0.1-0.4-0.2-0.6-0.4c0,0,0,0,0,0
			c0,0.1,0,0.2,0.1,0.3c0,0,0,0,0,0c-0.3-0.2-0.5-0.4-0.8-0.6c-0.1,0.1,0,0.1,0,0.2c0,0,0,0.1,0,0.1c0,0-0.1,0-0.1,0
			c-0.2-0.1-0.3-0.2-0.5-0.3c-0.1,0-0.2-0.1-0.3-0.2c0,0.1,0.1,0.2,0.1,0.3c0,0,0,0,0,0c-0.1-0.1-0.3-0.2-0.4-0.3c0,0,0,0-0.1,0
			c0,0,0,0,0,0.1c0,0,0,0.1,0,0.1c0,0,0,0-0.1,0c-0.2-0.2-0.3-0.4-0.5-0.6c-0.1,0.2,0,0.3,0,0.5c-0.3-0.2-0.5-0.4-0.7-0.6
			c0,0.1,0,0.2,0,0.3c-0.3-0.2-0.4-0.5-0.7-0.6c0,0,0,0,0,0c0,0.1,0.1,0.2,0.1,0.3c0,0,0,0,0,0c-0.3-0.2-0.5-0.3-0.8-0.5
			c0,0,0,0.1-0.1,0.1c-0.2-0.2-0.4-0.4-0.7-0.6c-0.1-0.1-0.2-0.2-0.3-0.2c0,0-0.1,0-0.1,0c0,0,0,0.1,0,0.2c-0.2-0.2-0.5-0.3-0.7-0.5
			c-0.2-0.1-0.2-0.1-0.5,0.1c0.4,0.2,0.7,0.4,1.1,0.6c0,0,0,0,0,0c-0.1,0-0.1,0-0.2,0c0,0-0.1,0-0.1,0c0,0,0.1,0.1,0.1,0.1
			c0.2,0.1,0.5,0.2,0.7,0.3c0.1,0,0.1,0,0.2,0.1c-0.1,0-0.3,0-0.4,0c0,0,0,0,0,0c0.3,0.1,0.7,0.2,1,0.3c-0.1,0-0.1,0-0.2,0
			c0,0-0.1,0-0.1,0.1c0,0,0,0.1,0,0.1c0.1,0.1,0.2,0.1,0.3,0.2c0.1,0.1,0.2,0.1,0.3,0.2c0,0-0.1,0.1-0.2,0.2
			c0.2,0.1,0.4,0.2,0.6,0.4c0,0,0,0,0,0c-0.1,0-0.1,0-0.2,0c0,0-0.1,0-0.1,0.1c0,0,0,0.1,0,0.1c0.1,0.1,0.2,0.1,0.2,0.2
			c0.1,0,0.1,0.1,0.2,0.1c-0.1,0-0.2,0-0.3,0c0.2,0.2,0.3,0.3,0.5,0.5c-0.1,0-0.1,0-0.2,0c0,0-0.1,0-0.1,0c0,0,0,0,0,0.1
			c0.1,0.1,0.2,0.2,0.3,0.3c-0.1,0-0.1,0-0.2,0c0.1,0.1,0.1,0.2,0.1,0.3c0,0.1-0.1,0.2-0.1,0.3c0,0-0.1-0.1-0.1-0.1c0,0-0.1,0-0.2,0
			c-0.1-0.1-0.1-0.2-0.2-0.3c-0.1,0.1-0.1,0.1-0.2,0.2C19.3,27.8,19.3,27.6,19.1,27.5z M15.2,21.7c-0.1-0.3-0.2-0.5-0.4-0.8
			c0.1,0.1,0.2,0.1,0.3,0.2c0-0.1,0-0.2,0-0.2c-0.1-0.2-0.1-0.3-0.2-0.5c0-0.1,0-0.1-0.1-0.2c0-0.1-0.1-0.1-0.1-0.2c0,0,0,0,0,0
			c0,0,0,0.1,0,0.1c0,0.3,0,0.6,0,0.9c0,0.1,0,0.2,0.2,0.2c0,0,0,0,0,0c0,0.1,0.1,0.2,0.1,0.3C15,21.7,15,21.7,15.2,21.7z
			 M17.2,18.9C17.2,18.9,17.2,18.9,17.2,18.9c0.1-0.2,0.1-0.5,0.1-0.7c0,0,0,0,0,0c0,0-0.1,0-0.1,0c-0.1,0.1-0.2,0.2-0.3,0.4
			c-0.1,0.1-0.2,0.2-0.3,0.4C16.8,18.9,17,19,17.2,18.9C17.2,18.9,17.2,18.9,17.2,18.9z M18.1,21c-0.2,0.1-0.5,0.2-0.7,0.4
			c0.1,0.1,0.1,0.1,0.2,0.1c-0.1,0-0.1,0.1-0.1,0.1c0,0.1,0.1,0.1,0.1,0.2c0.2-0.2,0.3-0.5,0.5-0.7C18.1,21.1,18.2,21.1,18.1,21z
			 M12.4,20.1C12.3,20.1,12.3,20.1,12.4,20.1c0,0.1,0,0.1,0,0.2c0.2,0.3,0.2,0.3,0.5,0.3c0.1,0,0.1,0,0.2,0c0,0,0.1,0,0.1,0
			c0,0,0,0,0,0C12.9,20.4,12.6,20.2,12.4,20.1z M12.2,20c-0.1-0.1-0.2-0.2-0.4-0.2C11.7,20,12,20.2,12,20.4c0,0,0,0,0.1,0
			C12.1,20.3,12.1,20.1,12.2,20z M16.2,21.4c0.1,0.1,0.2,0.2,0.3,0.3c0,0,0,0,0,0c0-0.1,0-0.3,0-0.4c0,0,0-0.1-0.1-0.1
			c0,0-0.1,0-0.1,0C16.3,21.2,16.2,21.3,16.2,21.4z M16.7,20.2C16.7,20.2,16.7,20.2,16.7,20.2c0-0.1,0-0.1,0-0.2c0,0,0,0,0-0.1
			c0,0,0,0-0.1,0s0,0-0.1,0c-0.1,0.1-0.1,0.3,0,0.4c0.1,0,0.1,0,0.1-0.1C16.7,20.3,16.7,20.2,16.7,20.2z M16,21.9
			c0.1,0.1,0.1,0.1,0.1,0.1c0-0.1,0.1-0.1,0.1-0.2c0,0,0,0,0,0c0-0.1,0-0.2,0-0.3c0,0-0.1,0-0.1,0c-0.1,0.1-0.2,0.2-0.2,0.3
			C15.9,21.9,16,21.9,16,21.9z M16.4,20.3c-0.2,0.1-0.3,0.3-0.3,0.3c0.1,0,0.2,0,0.3,0C16.4,20.5,16.4,20.4,16.4,20.3z M16.4,20.6
			c-0.1,0.1-0.2,0.2-0.3,0.2c0,0,0,0,0,0.1c0,0,0,0,0,0c0.1,0,0.2,0,0.3,0C16.4,20.9,16.4,20.8,16.4,20.6z M11.2,17.3
			C11.2,17.3,11.2,17.3,11.2,17.3c-0.2,0-0.3,0-0.5,0c0,0,0,0.1,0,0.1c0,0,0.1,0,0.1,0c0.1-0.1,0.2,0,0.3,0
			C11.1,17.3,11.1,17.3,11.2,17.3z M13.4,21.5c0.1-0.1,0.2-0.1,0.1-0.2c0,0-0.1,0-0.1-0.1c0,0-0.1,0-0.1,0c0,0,0,0.1,0,0.1
			C13.3,21.4,13.4,21.4,13.4,21.5z M21.3,15.7C21.3,15.7,21.3,15.7,21.3,15.7c0.1,0,0.3,0,0.4,0c0,0,0,0,0,0
			C21.6,15.7,21.5,15.7,21.3,15.7z M12.1,22.5c0.1,0.1,0.1,0.2,0.2,0.1C12.3,22.5,12.3,22.5,12.1,22.5z M18.5,23
			C18.5,23,18.5,23,18.5,23c0.1,0,0.2,0,0.3,0c0,0,0,0,0,0C18.6,23,18.6,23,18.5,23z M18,23C18,23,18,23,18,23
			c-0.1-0.1-0.2-0.1-0.2-0.1c0,0,0,0,0,0c0,0,0,0,0,0C17.9,23,18,23,18,23z M10.2,14.8C10.2,14.8,10.2,14.8,10.2,14.8
			c-0.1,0-0.2,0-0.2,0c0,0,0,0,0,0C10,14.8,10.1,14.8,10.2,14.8z M10.8,14.6C10.8,14.6,10.8,14.6,10.8,14.6c0.1,0,0.2,0,0.2,0
			c0,0,0,0,0,0C11,14.6,10.9,14.6,10.8,14.6z"/>
	</g>
</g>
</svg>
