<?xml version="1.0" encoding="utf-8"?>
<!-- Generator: Adobe Illustrator 16.0.0, SVG Export Plug-In . SVG Version: 6.00 Build 0)  -->
<!DOCTYPE svg PUBLIC "-//W3C//DTD SVG 1.1//EN" "http://www.w3.org/Graphics/SVG/1.1/DTD/svg11.dtd">
<svg version="1.1" xmlns="http://www.w3.org/2000/svg" xmlns:xlink="http://www.w3.org/1999/xlink" x="0px" y="0px" width="512px"
	 height="512px" viewBox="0 0 512 512" enable-background="new 0 0 512 512" xml:space="preserve">
<g id="grid">
</g>
<g id="alcohol" display="none">
	<path display="inline" d="M268,264.047L496,94H12.006L234,264.047V405h-50v17h128v-17h-44V264.047z M213.469,219.998
		L89.694,125.441l10.132-13.261l123.774,94.561L213.469,219.998z"/>
</g>
<g id="tabaco" display="none">
	<g display="inline">
		<polygon points="470.438,244.428 169.13,346.356 203.795,438.655 497.672,317.973 		"/>
		<polygon points="98.734,370.168 134.612,467.064 174.692,450.605 139.328,356.438 		"/>
		<path d="M125.928,326.594c-19.881-4.146-34.818-21.759-34.818-42.873c0-7.405,1.875-14.268,5.124-20.383
			c1.553-2.566,3.34-3.338,4.948-7.338c-0.002,0-0.006,0-0.009,0c0.029,0,0.055-0.169,0.085-0.203
			c-2.52-1.475-7.067-4.218-10.395-6.394C59.606,227.79,39.08,191.738,39.08,150.853c0-46.764,26.808-87.246,65.877-106.978
			C51.997,56.101,12.5,103.521,12.5,160.194c0,46.847,25.404,86.762,64.305,106.187c-2.314,5.321-3.663,11.162-3.663,17.343
			c0,24.193,19.611,43.801,43.803,43.801C120.024,327.524,123.026,327.199,125.928,326.594z"/>
		<path d="M128.17,250.192c1.702,0.298,3.466,0.46,5.277,0.46c14.207,0,25.727-9.673,25.727-21.601c0-3.049-0.792-5.931-2.152-8.55
			c22.847-9.576,37.769-29.26,37.769-52.366c0-27.944-23.198-51.331-54.305-57.358c22.947,9.73,38.692,29.686,38.692,52.743
			c0,20.153-12.053,37.915-30.414,48.566c-1.955,1.079-4.626,2.279-6.104,3.007c0.018,0.018,0.031-0.095,0.051-0.095
			c-0.002,0-0.007,0-0.007,0c0.945,0,1.994,2.547,2.909,3.811c1.906,3.022,3.009,6.538,3.009,10.192
			C148.622,239.408,139.846,248.147,128.17,250.192z"/>
	</g>
</g>
<g id="marihuana" display="none">
	<path display="inline" d="M488.706,209.854c15.269-24.868,0.437-17.887-14.834-17.016
		c-114.293,15.27-167.079,77.218-167.079,77.218s11.342-140.039-37.081-235.577c-16.759-33.155-32.282,1.314-32.282,1.314
		c-68.054,121.712-39.262,234.263-39.262,234.263c-47.114-57.584-167.517-79.833-167.517-79.833
		c-26.175-6.543-15.705,17.014-15.705,17.014c57.584,115.167,154.43,155.738,154.43,155.738
		c-39.262,18.321-92.92,78.524-92.92,78.524c-28.792,27.481,0,27.481,0,27.481c96.846,1.31,149.252-66.743,149.252-66.743
		c1.697-1.817,3.292-3.556,5.292-5.218V488h43v-85.17C325,450.1,419.959,469,419.959,469c28.793,10.487,18.015-15.723,18.015-15.723
		c-39.262-65.437-100.926-90.303-100.926-90.303C408.156,334.617,464.277,261.328,488.706,209.854z"/>
</g>
<g id="cocaina" display="none">
	<g display="inline">
		<g>
			<path d="M443.138,459.582c0,0-21.191-58.271-75.929-37.074c0,0-30.016-88.297-100.64-22.967c0,0-67.096-12.367-93.582,52.973
				c0,0-37.08,7.068-37.08,26.486h360.197C496.105,479,476.688,447.215,443.138,459.582z"/>
			<path d="M435.758,375.459c-11.524,0-20.871,9.342-20.871,20.875c0,11.523,9.347,20.865,20.871,20.865
				c11.523,0,20.87-9.342,20.87-20.865C456.628,384.801,447.281,375.459,435.758,375.459z"/>
			<path d="M474.924,408.37c5.847,0,10.593-4.746,10.593-10.599c0-5.842-4.746-10.598-10.593-10.598
				c-5.853,0-10.594,4.756-10.594,10.598C464.33,403.624,469.071,408.37,474.924,408.37z"/>
			<path d="M465.773,431.619c3.228,0,5.837-2.615,5.837-5.833s-2.609-5.843-5.837-5.843c-3.224,0-5.838,2.625-5.838,5.843
				S462.55,431.619,465.773,431.619z"/>
		</g>
		<path d="M157.206,425.505l282.861-211.758c-4.008-6.305-6.41-13.746-6.41-21.77c0-13.676,6.792-25.712,17.129-33.103
			L362.473,40.903c-6.34,4.062-13.831,6.496-21.916,6.496c-14.107,0-26.531-7.179-33.847-18.069L24.011,240.967
			c4.535,6.557,7.215,14.5,7.215,23.088c0,14.137-7.215,26.586-18.155,33.896l88.222,117.84c6.556-4.494,14.48-7.159,23.032-7.159
			C137.874,408.632,149.794,415.328,157.206,425.505z M112.328,292.934l80.675-59.931c-0.171-1.508-0.462-2.996-0.462-4.565
			c0-22.746,18.442-41.187,41.187-41.187c5.802,0,11.303,1.227,16.31,3.398l87.951-65.34l25.013,33.676l-88.463,65.712
			c0.115,1.247,0.377,2.464,0.377,3.741c0,22.746-18.442,41.188-41.188,41.188c-5.505,0-10.734-1.127-15.536-3.077L137.336,326.6
			L112.328,292.934z"/>
	</g>
</g>
<g id="poper" display="none">
	<g display="inline">
		<path fill-rule="evenodd" clip-rule="evenodd" d="M339.854,270.309c-25.598-0.457-51.221-0.553-76.807,0.133
			c-6.367,0.168-17.778,0.131-17.778,0.131s-45.358-0.625-69.329-0.131c-13.175-0.949-18.121,4.492-18.205,17.514
			c-0.276,43.016-0.268,86.031-0.015,129.047c0.084,14.812,4.486,19.076,19.896,19.125c58.248,0.217,116.482,0.084,176.82,0.084
			c0-51.316,0.109-99.451-0.072-147.584C354.329,276.818,349.548,270.477,339.854,270.309z"/>
		<path fill-rule="evenodd" clip-rule="evenodd" d="M232.032,159.375c8,0.144,17.796,0.156,23.947,0.144
			c7.977,0.012,15.977,0,23.977-0.144c14.691-0.276,18.547-4.601,19.062-19.928c0.098-3.051,0.098-6.114,0-9.178
			c-0.516-15.34-4.359-19.664-19.039-19.952c-8.006-0.144-16.012-0.156-24-0.144c-6.151-0.012-15.965,0-23.971,0.144
			c-14.679,0.288-18.517,4.612-19.033,19.952c-0.096,3.063-0.084,6.126,0.012,9.178
			C213.503,154.774,217.341,159.099,232.032,159.375z"/>
		<path fill-rule="evenodd" clip-rule="evenodd" d="M256.175,45c-22,0-43.433,0-65,0c1.068,18,2.864,23.162,18.085,23.301
			c15.577,0.146,30.915-0.104,46.915-0.402c15.582,0.298,31.163,0.548,46.74,0.401c15.221-0.138,16.842-5.3,17.91-23.3
			C299.258,45,277.713,45,256.175,45z"/>
		<path fill-rule="evenodd" clip-rule="evenodd" d="M388.004,219.196c0.105-16.336-6.414-28.854-20.751-33.418
			c-17.106-5.441-31.326-13.958-34.14-31.136c-3.349-20.469-3.195-42.103,15.564-57.671c1.287-1.081,1.58-3.399,2.448-5.465
			c-2.952-8.181-7.949-12.264-17.679-12.205C307.588,79.487,282,79.536,256,79.54c-25.913-0.004-51.774-0.053-77.632-0.239
			c-9.73-0.06-14.82,4.024-17.772,12.205c0.868,2.066,1.114,4.385,2.402,5.465c18.76,15.568,18.889,37.202,15.541,57.671
			c-2.814,17.178-17.045,25.694-34.151,31.136c-14.336,4.564-20.862,17.082-20.757,33.418c0.481,74.656,0.126,149.314,0.261,223.982
			c0.04,21.178,2.751,23.725,24.514,23.748C184.272,466.975,220.136,467,256,467c35,0,71.544-0.025,107.41-0.074
			c21.764-0.023,24.291-2.57,24.33-23.748C387.875,368.51,387.523,293.852,388.004,219.196z M370,447.406
			c-35,1.553-76,2.207-114,2.076c-38.1,0.131-79.72-0.523-114-2.076c0-78.561,0-157.182,0-237.664
			c18-12.529,43.188-17.345,51.229-42.919c7.013-22.295,6.058-41.823-1.774-66.823c21.568,0,42.886,0,64.545,0
			c21,0,42.605,0,64.174,0c-7.832,25-8.602,44.528-1.589,66.823C326.627,192.397,352,197.214,370,209.743
			C370,290.225,370,368.846,370,447.406z"/>
	</g>
</g>
<g id="extasis" display="none">
	<path display="inline" d="M254.495,13.255c-132.825,0-240.5,107.679-240.5,240.5c0,132.819,107.675,240.498,240.5,240.498
		c132.826,0,240.501-107.679,240.501-240.498C494.996,120.934,387.32,13.255,254.495,13.255z M299,72h25v182h-25V72z M189,72h25v182
		h-25V72z M340.47,411.257c-39.672,19.517-77.74,20.529-85.184,20.529c-0.682,0-1.106-0.008-1.252-0.012l-0.475-0.022
		c-89.353-6.419-131.788-54.568-151.652-93.758C80.579,295.916,80.333,256,80.333,254h10l10,0.068
		c0.001,0.373,0.337,37.706,19.746,75.578c25.532,49.82,70.823,77.461,134.627,82.115c2.979,0.049,40.055-0.107,77.596-18.788
		c51.346-25.551,79.626-72.472,84.053-139.471l19.957,1.321C430.144,348.179,380.787,391.421,340.47,411.257z"/>
</g>
<g id="heroina" display="none">
	<g display="inline">
		<polygon points="392.77,239.347 371.309,260.812 242.523,132.027 263.984,110.561 		"/>
		<polygon points="419.604,148.126 365.941,201.785 349.838,185.688 403.508,132.027 		"/>
		<polygon points="365.941,94.465 312.281,148.126 296.186,132.027 349.838,78.368 		"/>
		<polygon points="462.527,148.126 441.066,169.588 328.385,56.903 349.838,35.437 		"/>
		<polygon points="49,444.371 49,476.562 140.956,384.225 125.053,368.129 		"/>
		<path d="M117,314.473V386h71.864L333.75,242.917l-73.496-74.227L117,314.473z M312.281,244.711L183.496,373.494l-10.731-10.73
			l59.027-59.021l-21.465-21.469l10.734-10.73l21.462,21.469l32.194-32.199l-21.463-21.466l10.731-10.731l21.461,21.461
			l16.105-16.096L312.281,244.711z"/>
	</g>
</g>
<g id="lsd" display="none">
	<g display="inline">
		<path fill-rule="evenodd" clip-rule="evenodd" d="M187.471,212.463c1.912,3.678,4.867,5.804,9.264,4.839
			c3.562-0.784,5.24-3.64,5.636-9.389c1.08-0.31,2.307-0.663,3.531-1.015c1.155-0.331,2.312-0.664,3.651-1.048
			c2.247,3.865,5.372,6.436,9.956,4.857c4.024-1.386,5.489-4.755,4.979-9.022c2.496-0.718,4.898-1.408,7.493-2.152
			c0.596,0.84,1.141,1.757,1.828,2.551c2.07,2.386,4.784,3.203,7.721,2.342c2.777-0.817,5.093-2.806,5.058-5.799
			c-0.036-3.395,1.732-4.248,4.426-4.695c1.068-0.178,2.097-0.582,3.265-0.917c2.151,3.83,5.176,6.304,9.649,4.944
			c4.292-1.305,5.669-4.825,5.283-9.238c1.271-0.366,2.463-0.587,3.558-1.046c2.478-1.038,4.272-1.004,5.963,1.688
			c1.58,2.52,4.539,3.045,7.366,2.239c2.96-0.844,4.826-2.939,5.316-6.057c0.149-0.957,0.069-1.95,0.099-3.05
			c1.917-0.551,3.87-1.112,6.043-1.735c0.579,2.013,1.108,3.86,1.641,5.716c-5.634,4.491-6.762,6.869-5.146,10.843
			c1.38,3.397,4.357,4.777,9.515,4.28c0.696,2.424,1.405,4.894,2.111,7.345c-5.145,3.213-6.66,5.957-5.518,9.898
			c1.057,3.633,3.86,5.152,9.91,5.279c0.263,0.754,0.574,1.555,0.824,2.376c0.471,1.554,0.904,3.125,1.332,4.613
			c-5.363,3.406-6.915,6.375-5.548,10.348c1.275,3.704,4.254,5.203,9.79,4.844c0.674,2.35,1.358,4.731,2.034,7.083
			c-5.665,4.393-6.865,6.939-5.212,10.938c1.379,3.332,4.395,4.695,9.696,4.174c0.334,1.16,0.688,2.395,1.042,3.625
			c0.356,1.244,0.714,2.492,1.048,3.652c-5.438,3.426-6.847,5.998-5.659,10.02c1.127,3.822,3.657,5.191,10.024,5.264
			c0.39,1.357,0.831,2.805,1.213,4.264c0.189,0.713,0.275,1.449,0.433,2.314c-2.021,0.58-3.886,1.115-5.946,1.709
			c-0.529-0.764-1.067-1.672-1.731-2.475c-2.033-2.473-4.787-3.189-7.699-2.357c-2.778,0.797-5.099,2.801-5.112,5.785
			c-0.02,3.357-1.719,4.26-4.449,4.672c-1.069,0.16-2.1,0.576-3.256,0.91c-2.146-3.912-5.192-6.271-9.69-4.859
			c-4.154,1.299-5.49,4.697-5.193,8.971c-2.451,0.705-4.841,1.391-7.445,2.139c-2.169-3.684-5.272-6.201-9.875-4.662
			c-4.109,1.373-5.354,4.82-4.996,8.984c-2.531,0.729-4.931,1.418-7.55,2.17c-1.974-3.936-5.155-6.156-9.547-4.828
			c-4.101,1.238-5.579,4.633-5.229,8.984c-2.438,0.701-4.814,1.383-7.453,2.139c-2.17-3.52-5.144-6.188-9.804-4.629
			c-4.166,1.395-5.403,4.791-5.099,9.008c-2.138,0.613-4.211,1.209-6.76,1.941c-0.561-1.945-1.184-3.775-1.563-5.656
			c-0.112-0.555,0.287-1.539,0.759-1.83c3.562-2.195,4.892-5.213,3.592-9.225c-1.116-3.449-3.654-4.828-8.846-4.898
			c-0.705-2.455-1.423-4.957-2.14-7.463c4.496-3.084,5.781-5.58,4.791-9.314c-0.996-3.76-3.391-5.285-9.057-5.654
			c-0.692-2.414-1.405-4.898-2.117-7.377c4.531-3.217,5.812-5.777,4.729-9.441c-1.09-3.699-3.501-5.172-9.118-5.5
			c-0.681-2.371-1.372-4.773-2.099-7.309c3.787-2.299,6.201-5.292,4.633-10.015c-1.146-3.45-3.733-4.873-8.857-4.892
			c-0.705-2.455-1.423-4.954-1.816-6.325c1.856-3.038,3.778-5.179,4.539-7.675c1.033-3.392-1.619-7.667-5.173-7.843
			c-4.505-0.225-5.185-2.837-5.595-6.473C183.023,213.739,185.177,213.122,187.471,212.463z M282.877,248.248
			c-4.282-14.887-19.865-23.592-34.52-19.283c-15.008,4.413-23.511,19.845-19.221,34.882c4.129,14.477,19.954,23.289,34.396,19.154
			C278.576,278.693,287.183,263.229,282.877,248.248z"/>
		<path fill-rule="evenodd" clip-rule="evenodd" d="M308.173,177.798c1.911,3.678,4.867,5.806,9.265,4.838
			c3.561-0.784,5.24-3.638,5.636-9.387c1.08-0.311,2.306-0.663,3.53-1.014c1.156-0.333,2.312-0.665,3.65-1.049
			c2.247,3.865,5.373,6.437,9.957,4.857c4.021-1.386,5.486-4.755,4.977-9.022c2.498-0.716,4.899-1.407,7.494-2.153
			c0.595,0.84,1.141,1.759,1.828,2.553c2.07,2.386,4.783,3.203,7.72,2.341c2.778-0.817,5.093-2.806,5.059-5.798
			c-0.037-3.395,1.731-4.247,4.425-4.695c1.068-0.178,2.097-0.581,3.266-0.917c2.151,3.831,5.176,6.304,9.648,4.943
			c4.293-1.305,5.67-4.824,5.284-9.239c1.27-0.363,2.462-0.587,3.557-1.045c2.479-1.038,4.271-1.005,5.964,1.687
			c1.58,2.52,4.539,3.046,7.366,2.24c2.959-0.844,4.824-2.939,5.315-6.056c0.151-0.957,0.07-1.951,0.101-3.05
			c1.915-0.553,3.87-1.112,6.041-1.736c0.577,2.013,1.108,3.86,1.642,5.716c-5.632,4.491-6.763,6.869-5.146,10.843
			c1.38,3.397,4.355,4.777,9.514,4.28c0.696,2.423,1.406,4.893,2.109,7.344c-5.142,3.213-6.657,5.957-5.516,9.898
			c1.058,3.633,3.861,5.151,9.909,5.279c0.264,0.753,0.578,1.556,0.826,2.376c0.471,1.556,0.904,3.125,1.331,4.613
			c-5.362,3.406-6.915,6.375-5.546,10.349c1.276,3.703,4.252,5.202,9.788,4.843c0.674,2.349,1.358,4.731,2.035,7.084
			c-5.665,4.393-6.866,6.939-5.212,10.938c1.378,3.331,4.392,4.694,9.697,4.173c0.333,1.162,0.688,2.395,1.041,3.626
			c0.357,1.245,0.714,2.489,1.048,3.65c-5.438,3.427-6.847,5.999-5.66,10.021c1.127,3.819,3.656,5.19,10.023,5.262
			c0.391,1.359,0.832,2.805,1.215,4.264c0.188,0.711,0.275,1.451,0.431,2.314c-2.018,0.58-3.883,1.117-5.945,1.709
			c-0.53-0.764-1.068-1.672-1.73-2.475c-2.035-2.471-4.787-3.189-7.701-2.355c-2.776,0.797-5.096,2.799-5.112,5.783
			c-0.018,3.357-1.72,4.262-4.447,4.67c-1.07,0.162-2.102,0.58-3.258,0.914c-2.145-3.912-5.191-6.271-9.689-4.861
			c-4.153,1.299-5.49,4.697-5.194,8.971c-2.452,0.705-4.837,1.391-7.443,2.139c-2.169-3.684-5.273-6.201-9.876-4.662
			c-4.109,1.373-5.354,4.82-4.994,8.986c-2.533,0.727-4.932,1.416-7.551,2.168c-1.972-3.934-5.153-6.154-9.547-4.83
			c-4.1,1.238-5.578,4.633-5.229,8.986c-2.438,0.699-4.814,1.383-7.452,2.141c-2.168-3.52-5.142-6.189-9.803-4.631
			c-4.168,1.395-5.405,4.791-5.099,9.008c-2.136,0.613-4.211,1.209-6.759,1.943c-0.561-1.949-1.184-3.777-1.566-5.656
			c-0.11-0.555,0.289-1.541,0.76-1.832c3.563-2.195,4.893-5.213,3.594-9.225c-1.117-3.447-3.657-4.83-8.847-4.896
			c-0.706-2.457-1.424-4.957-2.14-7.463c4.496-3.084,5.781-5.584,4.79-9.316c-0.996-3.759-3.391-5.285-9.055-5.656
			c-0.692-2.413-1.406-4.896-2.118-7.375c4.532-3.217,5.813-5.777,4.729-9.442c-1.087-3.699-3.501-5.17-9.118-5.499
			c-0.68-2.371-1.372-4.775-2.098-7.309c3.787-2.299,6.2-5.292,4.631-10.017c-1.145-3.449-3.73-4.869-8.855-4.891
			c-0.705-2.453-1.422-4.953-1.817-6.325c1.855-3.037,3.778-5.178,4.541-7.675c1.03-3.392-1.62-7.666-5.172-7.842
			c-4.507-0.225-5.185-2.836-5.596-6.472C303.726,179.075,305.88,178.457,308.173,177.798z M403.576,213.583
			c-4.281-14.886-19.862-23.592-34.518-19.281c-15.009,4.413-23.511,19.844-19.221,34.88c4.13,14.478,19.953,23.29,34.395,19.154
			C399.276,244.029,407.883,228.565,403.576,213.583z"/>
		<path fill-rule="evenodd" clip-rule="evenodd" d="M66.772,247.125c1.912,3.677,4.867,5.805,9.265,4.839
			c3.562-0.785,5.238-3.638,5.634-9.388c1.082-0.312,2.309-0.664,3.532-1.015c1.157-0.332,2.312-0.663,3.651-1.049
			c2.247,3.867,5.372,6.435,9.957,4.857c4.023-1.386,5.488-4.756,4.978-9.021c2.497-0.718,4.899-1.408,7.493-2.153
			c0.595,0.842,1.141,1.758,1.829,2.551c2.067,2.387,4.783,3.204,7.721,2.342c2.775-0.818,5.092-2.806,5.059-5.798
			c-0.036-3.395,1.729-4.247,4.424-4.695c1.068-0.177,2.096-0.581,3.265-0.917c2.152,3.83,5.176,6.302,9.65,4.943
			c4.292-1.305,5.668-4.824,5.283-9.236c1.271-0.367,2.462-0.588,3.556-1.047c2.479-1.039,4.274-1.005,5.965,1.687
			c1.582,2.519,4.538,3.046,7.367,2.238c2.958-0.844,4.826-2.939,5.315-6.056c0.15-0.958,0.071-1.952,0.101-3.051
			c1.917-0.55,3.871-1.111,6.041-1.735c0.579,2.013,1.108,3.859,1.642,5.718c-5.633,4.489-6.762,6.868-5.146,10.841
			c1.38,3.399,4.358,4.777,9.515,4.28c0.695,2.423,1.405,4.894,2.11,7.347c-5.144,3.21-6.66,5.956-5.518,9.897
			c1.058,3.634,3.862,5.152,9.911,5.279c0.263,0.754,0.576,1.555,0.825,2.375c0.47,1.557,0.903,3.125,1.33,4.613
			c-5.362,3.408-6.914,6.377-5.547,10.352c1.276,3.701,4.255,5.199,9.79,4.84c0.674,2.352,1.359,4.732,2.034,7.084
			c-5.664,4.393-6.866,6.941-5.212,10.939c1.378,3.33,4.395,4.693,9.697,4.172c0.333,1.162,0.688,2.396,1.04,3.625
			c0.358,1.244,0.716,2.49,1.049,3.652c-5.438,3.426-6.848,5.998-5.659,10.021c1.126,3.818,3.656,5.191,10.024,5.262
			c0.391,1.357,0.83,2.805,1.213,4.264c0.188,0.711,0.275,1.449,0.431,2.314c-2.018,0.58-3.882,1.115-5.943,1.709
			c-0.53-0.766-1.068-1.672-1.731-2.475c-2.034-2.471-4.788-3.189-7.701-2.355c-2.778,0.795-5.098,2.797-5.113,5.783
			c-0.018,3.357-1.719,4.26-4.448,4.67c-1.069,0.162-2.1,0.582-3.257,0.914c-2.146-3.914-5.191-6.271-9.689-4.863
			c-4.154,1.301-5.491,4.699-5.195,8.975c-2.452,0.703-4.84,1.391-7.443,2.137c-2.169-3.684-5.273-6.199-9.877-4.662
			c-4.108,1.373-5.353,4.822-4.994,8.988c-2.532,0.725-4.932,1.414-7.551,2.166c-1.973-3.936-5.155-6.156-9.546-4.83
			c-4.102,1.238-5.58,4.633-5.23,8.988c-2.436,0.699-4.815,1.383-7.452,2.141c-2.169-3.52-5.142-6.191-9.805-4.631
			c-4.167,1.395-5.402,4.791-5.098,9.008c-2.136,0.611-4.211,1.209-6.76,1.941c-0.56-1.949-1.184-3.777-1.564-5.656
			c-0.111-0.555,0.288-1.539,0.76-1.832c3.562-2.193,4.892-5.211,3.594-9.225c-1.119-3.445-3.656-4.828-8.848-4.896
			c-0.705-2.455-1.424-4.957-2.141-7.463c4.497-3.084,5.782-5.582,4.79-9.316c-0.996-3.758-3.389-5.283-9.054-5.656
			c-0.692-2.412-1.406-4.895-2.119-7.373c4.533-3.219,5.813-5.777,4.731-9.445c-1.089-3.697-3.502-5.168-9.12-5.496
			c-0.68-2.371-1.371-4.775-2.098-7.311c3.787-2.299,6.201-5.291,4.634-10.016c-1.146-3.451-3.734-4.869-8.858-4.893
			c-0.704-2.455-1.423-4.951-1.816-6.324c1.855-3.035,3.779-5.18,4.539-7.674c1.034-3.395-1.619-7.667-5.171-7.844
			c-4.507-0.225-5.187-2.836-5.597-6.472C62.324,248.403,64.479,247.783,66.772,247.125z M162.179,282.91
			c-4.282-14.887-19.866-23.592-34.519-19.281c-15.008,4.412-23.513,19.846-19.222,34.883c4.128,14.475,19.955,23.287,34.396,19.152
			C157.878,313.355,166.485,297.891,162.179,282.91z"/>
		<path fill-rule="evenodd" clip-rule="evenodd" d="M222.134,333.162c1.912,3.676,4.869,5.805,9.264,4.838
			c3.563-0.783,5.24-3.639,5.637-9.387c1.08-0.311,2.307-0.662,3.53-1.014c1.157-0.334,2.312-0.666,3.651-1.049
			c2.247,3.865,5.373,6.436,9.958,4.855c4.022-1.385,5.488-4.756,4.978-9.021c2.496-0.719,4.899-1.406,7.494-2.152
			c0.595,0.84,1.14,1.76,1.826,2.555c2.07,2.383,4.785,3.201,7.722,2.338c2.778-0.816,5.092-2.805,5.058-5.795
			c-0.036-3.398,1.731-4.248,4.426-4.695c1.068-0.18,2.097-0.582,3.266-0.918c2.151,3.83,5.174,6.301,9.648,4.943
			c4.292-1.305,5.669-4.826,5.282-9.238c1.271-0.363,2.463-0.588,3.558-1.047c2.479-1.035,4.272-1.006,5.963,1.689
			c1.581,2.518,4.538,3.043,7.367,2.236c2.959-0.844,4.825-2.938,5.316-6.055c0.15-0.957,0.07-1.951,0.098-3.053
			c1.918-0.551,3.87-1.111,6.044-1.732c0.577,2.012,1.108,3.859,1.641,5.715c-5.633,4.488-6.762,6.869-5.146,10.844
			c1.38,3.396,4.356,4.775,9.515,4.279c0.695,2.42,1.405,4.893,2.109,7.344c-5.143,3.213-6.66,5.955-5.519,9.898
			c1.06,3.633,3.864,5.152,9.912,5.279c0.262,0.754,0.576,1.557,0.825,2.375c0.472,1.559,0.903,3.127,1.332,4.615
			c-5.362,3.406-6.916,6.375-5.546,10.348c1.275,3.703,4.251,5.203,9.788,4.844c0.673,2.35,1.357,4.73,2.034,7.084
			c-5.665,4.393-6.866,6.939-5.211,10.939c1.377,3.33,4.392,4.691,9.696,4.172c0.333,1.16,0.688,2.395,1.041,3.625
			c0.358,1.244,0.715,2.49,1.049,3.65c-5.438,3.428-6.848,6-5.66,10.021c1.126,3.82,3.655,5.191,10.023,5.262
			c0.391,1.359,0.831,2.807,1.214,4.266c0.189,0.709,0.275,1.449,0.431,2.314c-2.018,0.58-3.882,1.115-5.944,1.707
			c-0.53-0.764-1.068-1.672-1.731-2.475c-2.034-2.471-4.788-3.188-7.7-2.355c-2.777,0.797-5.097,2.799-5.114,5.785
			c-0.018,3.357-1.719,4.26-4.446,4.67c-1.07,0.162-2.102,0.58-3.259,0.912c-2.145-3.912-5.19-6.271-9.688-4.861
			c-4.154,1.299-5.49,4.697-5.195,8.973c-2.452,0.705-4.838,1.391-7.442,2.137c-2.169-3.684-5.275-6.197-9.876-4.66
			c-4.11,1.371-5.353,4.82-4.994,8.986c-2.535,0.725-4.932,1.414-7.551,2.168c-1.974-3.936-5.155-6.158-9.547-4.83
			c-4.101,1.238-5.582,4.631-5.229,8.986c-2.438,0.699-4.815,1.383-7.455,2.141c-2.167-3.518-5.141-6.189-9.803-4.631
			c-4.166,1.395-5.403,4.791-5.099,9.008c-2.135,0.613-4.209,1.209-6.76,1.943c-0.559-1.949-1.183-3.777-1.562-5.658
			c-0.112-0.555,0.286-1.539,0.759-1.83c3.562-2.193,4.892-5.213,3.592-9.227c-1.117-3.445-3.654-4.828-8.846-4.896
			c-0.705-2.455-1.424-4.955-2.142-7.463c4.498-3.084,5.783-5.58,4.792-9.314c-0.997-3.76-3.391-5.285-9.054-5.656
			c-0.693-2.414-1.408-4.896-2.12-7.373c4.533-3.219,5.813-5.779,4.731-9.445c-1.089-3.699-3.501-5.17-9.121-5.498
			c-0.679-2.371-1.37-4.775-2.098-7.309c3.787-2.301,6.202-5.293,4.634-10.02c-1.147-3.449-3.733-4.869-8.859-4.891
			c-0.704-2.453-1.421-4.953-1.815-6.324c1.857-3.037,3.778-5.178,4.54-7.674c1.034-3.393-1.619-7.668-5.172-7.842
			c-4.508-0.227-5.186-2.84-5.596-6.473C217.688,334.439,219.841,333.822,222.134,333.162z M317.54,368.947
			c-4.281-14.885-19.864-23.592-34.517-19.283c-15.01,4.414-23.513,19.848-19.224,34.885c4.128,14.477,19.954,23.287,34.396,19.152
			C313.24,399.395,321.846,383.93,317.54,368.947z"/>
		<path fill-rule="evenodd" clip-rule="evenodd" d="M342.836,298.498c1.912,3.676,4.868,5.805,9.265,4.838
			c3.562-0.785,5.238-3.641,5.635-9.389c1.081-0.309,2.308-0.662,3.531-1.014c1.157-0.33,2.312-0.664,3.651-1.047
			c2.247,3.865,5.373,6.434,9.955,4.855c4.023-1.385,5.488-4.756,4.979-9.021c2.497-0.717,4.897-1.406,7.492-2.152
			c0.598,0.842,1.142,1.76,1.828,2.555c2.07,2.385,4.785,3.201,7.722,2.34c2.776-0.818,5.092-2.807,5.059-5.799
			c-0.037-3.395,1.73-4.246,4.427-4.693c1.068-0.18,2.095-0.584,3.264-0.918c2.15,3.83,5.174,6.301,9.648,4.943
			c4.292-1.307,5.668-4.824,5.282-9.238c1.272-0.363,2.464-0.588,3.559-1.045c2.479-1.039,4.271-1.006,5.963,1.688
			c1.581,2.518,4.539,3.043,7.367,2.236c2.958-0.842,4.825-2.939,5.314-6.053c0.151-0.959,0.07-1.953,0.101-3.053
			c1.918-0.551,3.871-1.111,6.041-1.736c0.58,2.014,1.107,3.859,1.642,5.717c-5.632,4.492-6.761,6.869-5.146,10.842
			c1.38,3.398,4.356,4.779,9.514,4.279c0.696,2.424,1.405,4.895,2.108,7.346c-5.143,3.215-6.657,5.957-5.515,9.898
			c1.056,3.633,3.859,5.152,9.909,5.281c0.263,0.754,0.577,1.555,0.824,2.375c0.473,1.557,0.904,3.125,1.333,4.613
			c-5.362,3.406-6.913,6.377-5.548,10.348c1.277,3.705,4.254,5.203,9.79,4.846c0.674,2.348,1.358,4.73,2.033,7.082
			c-5.664,4.393-6.864,6.939-5.21,10.938c1.379,3.332,4.394,4.695,9.695,4.174c0.334,1.162,0.688,2.395,1.042,3.625
			c0.356,1.246,0.715,2.492,1.047,3.652c-5.436,3.426-6.846,5.998-5.659,10.02c1.128,3.82,3.658,5.191,10.025,5.264
			c0.39,1.357,0.83,2.805,1.214,4.264c0.188,0.711,0.274,1.449,0.432,2.314c-2.021,0.58-3.885,1.115-5.946,1.707
			c-0.529-0.764-1.067-1.67-1.732-2.475c-2.032-2.469-4.787-3.189-7.699-2.355c-2.777,0.797-5.097,2.801-5.112,5.785
			c-0.02,3.357-1.719,4.26-4.448,4.67c-1.067,0.162-2.1,0.582-3.256,0.912c-2.146-3.912-5.192-6.271-9.689-4.859
			c-4.153,1.299-5.49,4.697-5.194,8.971c-2.452,0.703-4.84,1.391-7.445,2.139c-2.169-3.684-5.271-6.201-9.876-4.662
			c-4.108,1.373-5.353,4.82-4.994,8.986c-2.531,0.727-4.933,1.416-7.551,2.168c-1.973-3.934-5.153-6.156-9.544-4.83
			c-4.102,1.24-5.582,4.633-5.23,8.986c-2.438,0.701-4.816,1.383-7.451,2.141c-2.171-3.52-5.145-6.189-9.806-4.631
			c-4.167,1.393-5.402,4.793-5.097,9.006c-2.138,0.615-4.211,1.209-6.761,1.943c-0.559-1.947-1.183-3.777-1.563-5.654
			c-0.11-0.555,0.287-1.541,0.76-1.834c3.562-2.193,4.892-5.211,3.593-9.225c-1.118-3.447-3.656-4.828-8.848-4.896
			c-0.705-2.455-1.423-4.957-2.139-7.463c4.495-3.082,5.783-5.582,4.791-9.316c-0.999-3.756-3.392-5.285-9.057-5.654
			c-0.692-2.412-1.405-4.898-2.117-7.375c4.532-3.219,5.812-5.779,4.729-9.443c-1.088-3.699-3.502-5.17-9.118-5.498
			c-0.683-2.371-1.373-4.775-2.101-7.309c3.788-2.299,6.202-5.293,4.634-10.02c-1.145-3.449-3.734-4.869-8.856-4.891
			c-0.706-2.455-1.423-4.955-1.817-6.326c1.855-3.035,3.778-5.178,4.539-7.674c1.034-3.391-1.62-7.664-5.171-7.842
			c-4.508-0.223-5.186-2.84-5.596-6.471C338.388,299.775,340.545,299.156,342.836,298.498z M438.241,334.285
			c-4.282-14.887-19.865-23.596-34.518-19.283c-15.012,4.412-23.511,19.846-19.223,34.883c4.129,14.477,19.954,23.289,34.395,19.154
			C433.94,364.73,442.548,349.266,438.241,334.285z"/>
		<path fill-rule="evenodd" clip-rule="evenodd" d="M101.435,367.826c1.913,3.676,4.867,5.805,9.266,4.836
			c3.561-0.783,5.238-3.639,5.634-9.387c1.082-0.311,2.308-0.662,3.533-1.014c1.156-0.332,2.312-0.664,3.649-1.051
			c2.249,3.867,5.374,6.436,9.958,4.859c4.023-1.387,5.489-4.758,4.978-9.021c2.497-0.719,4.9-1.41,7.493-2.154
			c0.596,0.842,1.143,1.758,1.829,2.555c2.068,2.385,4.784,3.201,7.721,2.338c2.776-0.816,5.093-2.805,5.059-5.797
			c-0.036-3.395,1.731-4.246,4.425-4.693c1.067-0.18,2.096-0.582,3.265-0.918c2.152,3.83,5.177,6.303,9.65,4.941
			c4.291-1.303,5.668-4.824,5.283-9.236c1.271-0.365,2.462-0.588,3.557-1.045c2.479-1.039,4.273-1.006,5.964,1.688
			c1.581,2.518,4.538,3.043,7.367,2.236c2.959-0.844,4.825-2.939,5.316-6.055c0.148-0.957,0.07-1.951,0.099-3.051
			c1.917-0.553,3.871-1.113,6.043-1.736c0.577,2.016,1.107,3.859,1.642,5.717c-5.634,4.49-6.764,6.869-5.146,10.844
			c1.379,3.398,4.356,4.775,9.513,4.279c0.697,2.424,1.405,4.891,2.11,7.344c-5.142,3.215-6.659,5.957-5.517,9.896
			c1.057,3.635,3.862,5.154,9.911,5.283c0.263,0.754,0.577,1.555,0.823,2.375c0.472,1.555,0.905,3.123,1.333,4.613
			c-5.362,3.406-6.915,6.377-5.548,10.348c1.276,3.703,4.254,5.203,9.79,4.844c0.675,2.35,1.358,4.732,2.033,7.084
			c-5.664,4.393-6.864,6.939-5.211,10.938c1.379,3.332,4.394,4.693,9.696,4.172c0.334,1.162,0.688,2.396,1.042,3.627
			c0.357,1.244,0.715,2.49,1.048,3.652c-5.437,3.426-6.848,5.996-5.66,10.021c1.126,3.818,3.657,5.189,10.025,5.262
			c0.39,1.357,0.83,2.803,1.215,4.264c0.188,0.711,0.272,1.449,0.43,2.314c-2.02,0.58-3.885,1.115-5.946,1.709
			c-0.528-0.766-1.067-1.672-1.729-2.477c-2.036-2.469-4.788-3.189-7.701-2.354c-2.778,0.793-5.098,2.797-5.112,5.781
			c-0.019,3.359-1.721,4.262-4.448,4.672c-1.07,0.162-2.102,0.58-3.259,0.912c-2.146-3.912-5.192-6.27-9.688-4.861
			c-4.153,1.301-5.491,4.699-5.194,8.975c-2.453,0.703-4.84,1.389-7.445,2.137c-2.169-3.686-5.272-6.199-9.876-4.662
			c-4.109,1.373-5.352,4.82-4.995,8.986c-2.532,0.727-4.932,1.416-7.55,2.168c-1.973-3.936-5.154-6.154-9.548-4.828
			c-4.1,1.236-5.578,4.631-5.228,8.984c-2.437,0.699-4.815,1.383-7.453,2.141c-2.169-3.52-5.144-6.189-9.804-4.629
			c-4.166,1.395-5.404,4.789-5.098,9.006c-2.139,0.615-4.212,1.209-6.762,1.941c-0.559-1.947-1.184-3.775-1.562-5.656
			c-0.112-0.553,0.287-1.539,0.759-1.83c3.562-2.195,4.891-5.213,3.592-9.225c-1.116-3.447-3.654-4.828-8.847-4.898
			c-0.704-2.453-1.423-4.957-2.139-7.461c4.496-3.084,5.78-5.582,4.791-9.316c-0.998-3.76-3.392-5.285-9.057-5.654
			c-0.693-2.414-1.405-4.898-2.117-7.377c4.532-3.219,5.812-5.777,4.729-9.441c-1.089-3.699-3.501-5.172-9.12-5.502
			c-0.68-2.369-1.37-4.771-2.098-7.307c3.788-2.299,6.201-5.293,4.633-10.02c-1.146-3.447-3.733-4.869-8.857-4.891
			c-0.705-2.455-1.423-4.951-1.816-6.324c1.857-3.035,3.778-5.178,4.54-7.674c1.034-3.393-1.62-7.666-5.171-7.844
			c-4.508-0.223-5.188-2.836-5.598-6.473C96.987,369.104,99.142,368.484,101.435,367.826z M196.843,403.611
			c-4.281-14.887-19.866-23.594-34.521-19.283c-15.008,4.412-23.511,19.846-19.221,34.883c4.129,14.475,19.954,23.287,34.396,19.152
			C192.542,434.057,201.148,418.594,196.843,403.611z"/>
		<path fill-rule="evenodd" clip-rule="evenodd" d="M152.808,91.767c1.913,3.677,4.867,5.804,9.266,4.839
			c3.561-0.784,5.239-3.639,5.634-9.39c1.082-0.31,2.307-0.662,3.532-1.013c1.156-0.332,2.312-0.664,3.651-1.049
			c2.246,3.866,5.373,6.437,9.956,4.857c4.023-1.386,5.489-4.754,4.979-9.021c2.496-0.717,4.898-1.408,7.493-2.152
			c0.596,0.839,1.142,1.757,1.828,2.551c2.069,2.385,4.784,3.203,7.721,2.341c2.777-0.817,5.093-2.806,5.06-5.798
			c-0.038-3.396,1.73-4.247,4.424-4.695c1.068-0.178,2.097-0.582,3.265-0.918c2.152,3.831,5.176,6.305,9.649,4.944
			c4.292-1.305,5.669-4.824,5.283-9.237c1.271-0.365,2.463-0.589,3.556-1.047c2.479-1.038,4.273-1.005,5.965,1.687
			c1.58,2.52,4.539,3.046,7.367,2.239c2.958-0.843,4.824-2.938,5.313-6.056c0.15-0.957,0.07-1.95,0.101-3.051
			c1.917-0.55,3.871-1.111,6.042-1.735c0.578,2.014,1.108,3.86,1.642,5.717c-5.633,4.49-6.762,6.868-5.146,10.842
			c1.379,3.398,4.355,4.778,9.513,4.281c0.696,2.423,1.407,4.893,2.109,7.345c-5.142,3.213-6.658,5.956-5.516,9.897
			c1.058,3.634,3.861,5.152,9.91,5.28c0.264,0.753,0.576,1.556,0.825,2.375c0.471,1.557,0.903,3.125,1.331,4.614
			c-5.362,3.406-6.914,6.376-5.547,10.349c1.276,3.704,4.254,5.203,9.789,4.844c0.676,2.35,1.359,4.731,2.036,7.084
			c-5.665,4.393-6.866,6.94-5.212,10.938c1.379,3.333,4.392,4.694,9.696,4.174c0.334,1.161,0.688,2.394,1.04,3.625
			c0.359,1.245,0.716,2.491,1.05,3.653c-5.438,3.426-6.849,5.997-5.661,10.019c1.129,3.821,3.658,5.191,10.024,5.263
			c0.392,1.359,0.832,2.806,1.215,4.265c0.188,0.711,0.275,1.45,0.432,2.315c-2.02,0.58-3.884,1.115-5.946,1.707
			c-0.528-0.764-1.066-1.672-1.729-2.475c-2.034-2.472-4.787-3.189-7.7-2.355c-2.78,0.795-5.099,2.799-5.113,5.783
			c-0.02,3.358-1.721,4.261-4.449,4.671c-1.068,0.163-2.099,0.581-3.256,0.913c-2.146-3.912-5.192-6.271-9.689-4.861
			c-4.153,1.299-5.491,4.697-5.193,8.973c-2.453,0.704-4.84,1.389-7.444,2.138c-2.169-3.685-5.274-6.201-9.877-4.662
			c-4.109,1.373-5.353,4.819-4.995,8.985c-2.531,0.728-4.931,1.416-7.551,2.167c-1.972-3.934-5.154-6.156-9.547-4.829
			c-4.1,1.238-5.578,4.633-5.228,8.986c-2.438,0.7-4.816,1.383-7.454,2.141c-2.169-3.52-5.143-6.19-9.804-4.63
			c-4.167,1.395-5.404,4.792-5.097,9.006c-2.138,0.614-4.211,1.209-6.762,1.942c-0.559-1.946-1.185-3.775-1.562-5.656
			c-0.113-0.553,0.287-1.539,0.759-1.83c3.562-2.194,4.891-5.213,3.592-9.226c-1.117-3.447-3.654-4.828-8.847-4.897
			c-0.704-2.456-1.423-4.958-2.14-7.463c4.495-3.083,5.782-5.582,4.791-9.316c-0.997-3.758-3.391-5.286-9.057-5.656
			c-0.692-2.413-1.406-4.897-2.116-7.375c4.531-3.218,5.812-5.778,4.729-9.444c-1.09-3.699-3.502-5.17-9.12-5.5
			c-0.681-2.37-1.372-4.773-2.099-7.308c3.789-2.299,6.201-5.292,4.634-10.017c-1.146-3.45-3.734-4.87-8.859-4.892
			c-0.703-2.452-1.421-4.951-1.815-6.324c1.856-3.036,3.778-5.179,4.541-7.674c1.033-3.392-1.621-7.666-5.173-7.843
			c-4.507-0.224-5.186-2.835-5.596-6.472C148.36,93.044,150.515,92.425,152.808,91.767z M248.214,127.552
			c-4.282-14.886-19.865-23.591-34.519-19.283c-15.008,4.413-23.511,19.847-19.221,34.883c4.129,14.477,19.954,23.289,34.396,19.155
			C243.914,157.998,252.52,142.534,248.214,127.552z"/>
		<path fill-rule="evenodd" clip-rule="evenodd" d="M273.51,57.103c1.912,3.677,4.868,5.805,9.266,4.838
			c3.562-0.783,5.238-3.639,5.635-9.387c1.08-0.312,2.307-0.663,3.529-1.015c1.157-0.332,2.313-0.663,3.652-1.049
			c2.247,3.867,5.373,6.437,9.956,4.858c4.022-1.386,5.488-4.754,4.979-9.022c2.497-0.717,4.897-1.407,7.493-2.152
			c0.595,0.839,1.141,1.757,1.827,2.552c2.068,2.385,4.783,3.203,7.721,2.341c2.778-0.818,5.094-2.807,5.059-5.798
			c-0.036-3.395,1.73-4.248,4.426-4.695c1.068-0.179,2.096-0.582,3.265-0.917c2.152,3.832,5.174,6.304,9.648,4.943
			c4.292-1.304,5.668-4.824,5.282-9.237c1.271-0.366,2.465-0.588,3.558-1.046c2.479-1.038,4.273-1.006,5.964,1.687
			c1.581,2.52,4.539,3.047,7.368,2.24c2.957-0.843,4.824-2.939,5.314-6.057c0.149-0.957,0.07-1.95,0.1-3.051
			c1.917-0.551,3.871-1.111,6.042-1.735c0.578,2.014,1.108,3.861,1.641,5.717c-5.632,4.492-6.761,6.869-5.146,10.843
			c1.379,3.397,4.355,4.777,9.514,4.279c0.697,2.424,1.406,4.895,2.109,7.346c-5.143,3.213-6.659,5.955-5.517,9.896
			c1.059,3.635,3.862,5.152,9.911,5.281c0.263,0.753,0.577,1.556,0.823,2.375c0.472,1.556,0.905,3.125,1.333,4.614
			c-5.361,3.406-6.914,6.375-5.549,10.348c1.278,3.705,4.256,5.203,9.791,4.844c0.674,2.349,1.357,4.731,2.036,7.084
			c-5.665,4.393-6.866,6.94-5.213,10.938c1.379,3.332,4.394,4.695,9.697,4.173c0.332,1.163,0.687,2.396,1.04,3.626
			c0.358,1.245,0.716,2.491,1.05,3.652c-5.438,3.426-6.849,5.997-5.661,10.02c1.128,3.82,3.658,5.191,10.024,5.263
			c0.392,1.359,0.832,2.806,1.215,4.265c0.188,0.71,0.275,1.449,0.431,2.314c-2.019,0.581-3.884,1.117-5.944,1.708
			c-0.531-0.764-1.069-1.672-1.731-2.475c-2.034-2.471-4.788-3.189-7.7-2.355c-2.777,0.796-5.098,2.798-5.113,5.783
			c-0.018,3.358-1.72,4.261-4.447,4.671c-1.07,0.162-2.102,0.58-3.258,0.912c-2.146-3.913-5.193-6.271-9.689-4.861
			c-4.153,1.299-5.49,4.697-5.193,8.973c-2.454,0.704-4.84,1.39-7.444,2.138c-2.169-3.685-5.273-6.2-9.877-4.663
			c-4.11,1.373-5.353,4.821-4.994,8.986c-2.532,0.727-4.93,1.417-7.55,2.168c-1.972-3.936-5.154-6.156-9.547-4.829
			c-4.099,1.238-5.579,4.632-5.229,8.985c-2.438,0.699-4.813,1.383-7.451,2.141c-2.168-3.519-5.142-6.189-9.805-4.63
			c-4.166,1.394-5.403,4.792-5.098,9.006c-2.136,0.615-4.211,1.209-6.76,1.941c-0.559-1.947-1.185-3.775-1.564-5.655
			c-0.11-0.554,0.288-1.54,0.762-1.832c3.561-2.194,4.89-5.212,3.591-9.224c-1.118-3.448-3.656-4.828-8.847-4.897
			c-0.705-2.456-1.423-4.958-2.141-7.464c4.498-3.084,5.783-5.581,4.792-9.315c-0.997-3.759-3.393-5.286-9.056-5.657
			c-0.693-2.414-1.406-4.896-2.118-7.375c4.532-3.218,5.812-5.777,4.729-9.444c-1.089-3.699-3.501-5.17-9.12-5.499
			c-0.682-2.371-1.371-4.774-2.099-7.309c3.789-2.299,6.202-5.292,4.634-10.016c-1.145-3.451-3.733-4.872-8.857-4.893
			c-0.703-2.452-1.422-4.952-1.815-6.324c1.854-3.037,3.777-5.18,4.539-7.675c1.032-3.393-1.621-7.666-5.173-7.842
			c-4.507-0.225-5.186-2.837-5.596-6.473C269.063,58.38,271.218,57.761,273.51,57.103z M368.915,92.888
			c-4.282-14.887-19.866-23.592-34.518-19.283c-15.01,4.413-23.512,19.846-19.222,34.883c4.129,14.477,19.952,23.29,34.396,19.155
			C364.615,123.335,373.22,107.871,368.915,92.888z"/>
		<path fill-rule="evenodd" clip-rule="evenodd" d="M32.109,126.43c1.912,3.676,4.867,5.805,9.266,4.838
			c3.561-0.784,5.239-3.639,5.634-9.388c1.081-0.31,2.308-0.663,3.532-1.014c1.157-0.332,2.312-0.664,3.651-1.049
			c2.247,3.865,5.373,6.436,9.956,4.857c4.024-1.386,5.488-4.756,4.979-9.021c2.495-0.717,4.898-1.408,7.492-2.152
			c0.596,0.839,1.141,1.757,1.828,2.551c2.069,2.385,4.784,3.203,7.722,2.34c2.776-0.816,5.091-2.805,5.058-5.797
			c-0.036-3.395,1.73-4.248,4.426-4.695c1.067-0.179,2.096-0.582,3.264-0.917c2.152,3.831,5.176,6.303,9.649,4.943
			c4.292-1.305,5.669-4.823,5.283-9.237c1.271-0.365,2.463-0.588,3.558-1.046c2.479-1.039,4.273-1.006,5.964,1.687
			c1.581,2.518,4.539,3.045,7.367,2.238c2.958-0.843,4.825-2.939,5.316-6.057c0.149-0.956,0.07-1.95,0.099-3.05
			c1.918-0.551,3.872-1.111,6.043-1.736c0.578,2.013,1.108,3.86,1.642,5.716c-5.634,4.491-6.762,6.869-5.146,10.843
			c1.379,3.397,4.356,4.777,9.514,4.28c0.696,2.423,1.405,4.893,2.109,7.345c-5.143,3.212-6.66,5.956-5.518,9.897
			c1.058,3.633,3.863,5.153,9.911,5.279c0.263,0.754,0.576,1.556,0.825,2.376c0.472,1.555,0.904,3.125,1.331,4.613
			c-5.361,3.406-6.914,6.375-5.547,10.349c1.276,3.703,4.254,5.202,9.789,4.843c0.676,2.349,1.359,4.73,2.036,7.083
			c-5.666,4.393-6.866,6.94-5.212,10.938c1.378,3.332,4.394,4.694,9.696,4.173c0.333,1.162,0.688,2.396,1.041,3.625
			c0.358,1.246,0.715,2.491,1.049,3.653c-5.438,3.425-6.848,5.997-5.661,10.021c1.128,3.819,3.657,5.191,10.026,5.262
			c0.39,1.36,0.83,2.807,1.213,4.266c0.189,0.709,0.276,1.449,0.432,2.315c-2.019,0.579-3.883,1.114-5.945,1.707
			c-0.528-0.764-1.068-1.671-1.731-2.474c-2.035-2.471-4.787-3.188-7.701-2.356c-2.777,0.797-5.096,2.798-5.112,5.784
			c-0.018,3.359-1.72,4.261-4.448,4.672c-1.069,0.16-2.102,0.58-3.258,0.912c-2.145-3.913-5.191-6.272-9.69-4.862
			c-4.152,1.3-5.489,4.697-5.194,8.972c-2.451,0.705-4.84,1.391-7.443,2.137c-2.168-3.684-5.273-6.198-9.876-4.662
			c-4.108,1.374-5.353,4.821-4.994,8.987c-2.532,0.727-4.931,1.417-7.551,2.167c-1.974-3.935-5.155-6.156-9.546-4.829
			c-4.101,1.238-5.58,4.633-5.23,8.985c-2.437,0.701-4.814,1.384-7.453,2.141c-2.169-3.519-5.142-6.19-9.802-4.629
			c-4.169,1.393-5.404,4.791-5.101,9.006c-2.136,0.613-4.21,1.209-6.76,1.942c-0.558-1.949-1.184-3.777-1.563-5.657
			c-0.112-0.554,0.289-1.54,0.76-1.831c3.562-2.195,4.89-5.212,3.592-9.226c-1.116-3.449-3.655-4.828-8.846-4.897
			c-0.705-2.456-1.424-4.958-2.141-7.464c4.496-3.083,5.782-5.581,4.791-9.315c-0.997-3.759-3.391-5.286-9.056-5.657
			c-0.693-2.412-1.406-4.896-2.118-7.375c4.532-3.218,5.812-5.777,4.73-9.444c-1.09-3.698-3.502-5.17-9.12-5.499
			c-0.681-2.37-1.371-4.773-2.099-7.308c3.788-2.299,6.201-5.292,4.633-10.019c-1.145-3.448-3.732-4.869-8.856-4.891
			c-0.705-2.454-1.423-4.952-1.816-6.324c1.856-3.036,3.778-5.179,4.539-7.673c1.033-3.394-1.619-7.667-5.172-7.844
			c-4.507-0.225-5.186-2.836-5.597-6.473C27.663,127.708,29.816,127.088,32.109,126.43z M127.517,162.214
			c-4.283-14.886-19.866-23.593-34.519-19.282c-15.009,4.414-23.512,19.846-19.223,34.885c4.13,14.474,19.955,23.289,34.396,19.152
			C123.216,192.66,131.823,177.197,127.517,162.214z"/>
	</g>
</g>
<g id="sedantes_etc...">
	<g>
		<path fill-rule="evenodd" clip-rule="evenodd" d="M121,134v364h269V134H121z M335,374.028c0,12.24-7.119,20.972-15.865,20.972
			H192.447c-8.746,0-16.447-8.731-16.447-20.972V196.592c0-12.249,7.701-23.592,16.447-23.592h126.688
			c8.746,0,15.865,11.343,15.865,23.592V374.028z"/>
		<path fill-rule="evenodd" clip-rule="evenodd" d="M414,30.836C414,22.09,406.909,15,398.163,15H112.837
			C104.09,15,97,22.09,97,30.836v71.328C97,110.91,104.09,118,112.837,118h285.326c8.746,0,15.837-7.09,15.837-15.836V30.836z
			 M129,102h-16V23h16V102z M168,102h-16V23h16V102z M208,102h-16V23h16V102z M247,102h-15V23h15V102z M279,102h-16V23h16V102z
			 M319,102h-16V23h16V102z M358,102h-16V23h16V102z M398,102h-16V23h16V102z"/>
	</g>
</g>
<g id="opioides_x2C__2-cb" display="none">
	<path display="inline" fill-rule="evenodd" clip-rule="evenodd" d="M348.044,348.562l125.165-125.167l0,0
		c31.817-32.595,18.957-101.468-32.032-152.459C390.184,19.944,319.563,5.337,286.972,37.158l0,0L161.807,162.323L38.968,287.655
		l0,0C5.747,321.647,20.507,389.62,71.5,440.613c50.991,50.989,118.961,65.75,152.957,32.532l0,0L348.044,348.562z M223.011,446.492
		c-27.718,27.135-77.234,21.058-118.233-11.058c27.11,11.109,54.978,8.998,72.164-8.188l152.038-152.041L202.954,149.18
		l85.418-85.417l0,0c31.134-30.479,91.419-17.451,134.595,25.725c43.175,43.175,54.115,101.373,23.638,132.507l0,0L334.041,334.559
		L223.011,446.492L223.011,446.492z"/>
</g>
<g id="ketamina" display="none">
	<g display="inline">
		<g>
			<path fill-rule="evenodd" clip-rule="evenodd" d="M104.074,173.994c6.79,0.121,15.104,0.132,20.323,0.121
				c6.771,0.011,13.561,0,20.35-0.121c12.468-0.234,15.74-3.903,16.178-16.913c0.083-2.589,0.083-5.188,0-7.788
				c-0.438-13.021-3.7-16.689-16.158-16.934c-6.794-0.124-13.589-0.133-20.37-0.124c-5.219-0.009-13.548,0-20.343,0.124
				c-12.458,0.244-15.716,3.913-16.154,16.934c-0.081,2.6-0.071,5.199,0.01,7.788C88.348,170.091,91.605,173.76,104.074,173.994z"/>
			<path fill-rule="evenodd" clip-rule="evenodd" d="M124.562,76.925c-18.671,0-36.86,0-55.165,0
				c0.907,15.277,2.431,19.657,15.348,19.775c13.221,0.123,26.238-0.088,39.816-0.341c13.226,0.253,26.448,0.464,39.668,0.341
				c12.917-0.118,14.294-4.498,15.2-19.775C161.128,76.925,142.842,76.925,124.562,76.925z"/>
			<path fill-rule="evenodd" clip-rule="evenodd" d="M236.446,224.764c0.089-13.864-5.444-24.486-17.61-28.361
				c-14.519-4.619-26.588-11.847-28.975-26.426c-2.841-17.371-2.712-35.732,13.209-48.945c1.093-0.918,1.341-2.885,2.078-4.639
				c-2.505-6.942-6.746-10.409-15.003-10.356c-21.947,0.157-43.664,0.197-65.73,0.202c-21.992-0.005-43.94-0.045-65.886-0.202
				c-8.258-0.053-12.577,3.414-15.083,10.356c0.737,1.754,0.946,3.721,2.039,4.639c15.922,13.213,16.032,31.574,13.19,48.945
				c-2.388,14.579-14.466,21.807-28.984,26.426c-12.167,3.875-17.706,14.497-17.616,28.361c0.408,63.36,0.107,126.724,0.221,190.094
				c0.034,17.973,2.334,20.134,20.805,20.153c30.44,0.043,60.877,0.064,91.315,0.064c29.705,0,60.72-0.021,91.16-0.064
				c18.47-0.02,20.616-2.181,20.647-20.153C236.336,351.487,236.038,288.124,236.446,224.764z M221.167,418.446
				c-29.705,1.316-64.501,1.873-96.752,1.763c-32.335,0.11-67.658-0.446-96.752-1.763c0-66.676,0-133.4,0-201.706
				c15.277-10.631,36.653-14.721,43.479-36.426c5.951-18.919,5.142-35.496-1.505-56.712c18.304,0,36.396,0,54.778,0
				c17.823,0,36.16,0,54.464,0c-6.646,21.216-7.3,37.793-1.348,56.712c6.825,21.705,28.358,25.795,43.636,36.426
				C221.167,285.046,221.167,351.771,221.167,418.446z"/>
			<path fill-rule="evenodd" clip-rule="evenodd" d="M207.896,283.69c-0.03-10.022-4.088-15.404-12.314-15.547
				c-21.724-0.39-43.471-0.468-65.186,0.112c-5.403,0.144-15.088,0.111-15.088,0.111s-38.496-0.53-58.839-0.111
				c-11.182-0.805-15.38,3.812-15.45,14.865c-0.235,36.505-0.227,73.014-0.013,109.521c0.071,12.57,3.807,16.189,16.885,16.232
				c49.435,0.183,98.858,0.071,150.067,0.071C207.958,365.391,208.05,324.54,207.896,283.69z M160.65,384h-20.879L119,342.18V384
				h-18v-86h18v37.34L141.811,298h18.839l-24.959,39.521L160.65,384z"/>
		</g>
		<g>
			<path d="M457.893,419.328c0,0-15.882-47.252-56.922-30.062c0,0-22.506-71.602-75.463-18.625c0,0-50.29-10.029-70.141,42.956
				c0,0-27.797,5.731-27.797,21.479h270.038C497.607,435.075,483.049,409.299,457.893,419.328z"/>
			<path d="M452.363,351.112c-8.638,0-15.643,7.576-15.643,16.929c0,9.344,7.005,16.919,15.643,16.919
				c8.636,0,15.643-7.575,15.643-16.919C468.006,358.688,460.999,351.112,452.363,351.112z"/>
			<path d="M481.725,377.801c4.385,0,7.942-3.85,7.942-8.596c0-4.737-3.558-8.594-7.942-8.594c-4.389,0-7.943,3.856-7.943,8.594
				C473.781,373.951,477.336,377.801,481.725,377.801z"/>
			<path d="M474.863,396.654c2.42,0,4.376-2.122,4.376-4.732c0-2.608-1.956-4.736-4.376-4.736c-2.418,0-4.377,2.128-4.377,4.736
				C470.486,394.532,472.445,396.654,474.863,396.654z"/>
		</g>
	</g>
</g>
<g id="metaanfetamina" display="none">
	<g display="inline">
		<path d="M434.75,417.924l-81.545-61.228l-5.537,1.916c27.553-33.306,39.16-79.149,26.707-123.955
			c-12.121-43.623-44.746-76.135-83.203-91.272l-27.055-97.353l23.123-6.426l-6.693-24.087l-23.563,6.548l-155.75,43.284
			L77.25,72.015l6.694,24.087l24.087-6.694l27.053,97.346c-26.095,33.083-36.576,77.576-24.453,121.198
			c12.898,46.414,48.22,80.528,91.002,93.928l-48.432,94.286L434.75,417.924z M131.547,302.141
			c-8.734-31.427-3.47-63.37,11.954-89.36c1.553-2.619,3.197-5.174,4.962-7.656c0.53-0.759,1.314-1.55,1.863-2.295
			c2.059-2.752,4.306-5.494,6.695-8.099l-0.002-0.006l-6.733-24.23l-23.948-86.173L245.81,51.12l23.948,86.173l6.732,24.225
			l0.004,0.012c3.391,0.999,6.459,2.263,9.641,3.559c0.861,0.354,1.697,0.695,2.545,1.07c2.781,1.212,5.486,2.553,8.152,3.986
			c26.629,14.303,47.629,38.962,56.365,70.399c17.01,61.209-18.82,124.611-80.027,141.621
			C211.964,399.173,148.557,363.35,131.547,302.141z M278.992,403.131c22.99-6.389,42.916-18.459,58.854-34.035l58.869,39.677
			l-215.657,59.932l36.606-62.964C237.422,409.374,258.334,408.872,278.992,403.131z"/>
		<path d="M166.656,344.008c24.686,28.26,64.169,41.604,102.739,30.887c38.562-10.717,65.506-42.522,72.07-79.467L166.656,344.008z"
			/>
		<path d="M297.506,264.622c3.832,13.788-4.234,28.067-18.025,31.899c-13.787,3.832-28.066-4.237-31.897-18.025
			c-3.832-13.788,4.236-28.067,18.024-31.898C279.396,242.765,293.674,250.834,297.506,264.622z"/>
		<circle cx="221.565" cy="235.179" r="13.47"/>
		<polygon points="313.137,138.119 312.852,156.07 337.498,176.343 351.803,169.948 389.051,126.355 349.629,93.255 		"/>
	</g>
</g>
</svg>
