<?xml version="1.0" encoding="utf-8"?>
<!-- Generator: Adobe Illustrator 16.0.0, SVG Export Plug-In . SVG Version: 6.00 Build 0)  -->
<!DOCTYPE svg PUBLIC "-//W3C//DTD SVG 1.1//EN" "http://www.w3.org/Graphics/SVG/1.1/DTD/svg11.dtd">
<svg version="1.1" id="Layer_2" xmlns="http://www.w3.org/2000/svg" xmlns:xlink="http://www.w3.org/1999/xlink" x="0px" y="0px"
	 width="32px" height="32px" viewBox="0 0 32 32" style="enable-background:new 0 0 32 32;" xml:space="preserve">
<path d="M30,9.6c-0.2-0.9-0.5-1.7-1-2.4c-1-1.5-2.3-2.4-4-2.9c-1.1-0.3-2.1-0.4-3.2-0.1c-0.9,0.2-1.7,0.6-2.5,1
	c-0.9,0.5-1.8,1.1-2.7,1.6c-0.8,0.4-1.6,0.9-2.3,1.3c-0.8,0.4-1.5,0.9-2.3,1.3c-0.8,0.4-1.5,0.9-2.3,1.3c-0.8,0.4-1.5,0.9-2.3,1.3
	c-0.8,0.4-1.6,0.9-2.3,1.3c-0.6,0.4-1.2,0.8-1.7,1.3c-1.1,1.2-1.8,2.6-2,4.3c0,0.1,0,0.2-0.1,0.2c0,0.5,0,0.9,0,1.4
	c0.1,0.4,0.2,0.9,0.3,1.3c0.4,1.3,1.1,2.5,2.1,3.4c0.6,0.6,1.4,1,2.2,1.4c1.5,0.7,3,0.7,4.5,0.2c0.7-0.2,1.4-0.6,2.1-1
	c1-0.5,1.9-1.1,2.9-1.6c0.8-0.4,1.6-0.9,2.3-1.3c0.8-0.4,1.5-0.9,2.3-1.3c0.8-0.4,1.6-0.9,2.3-1.3c0.8-0.5,1.6-0.9,2.4-1.4
	c0.7-0.4,1.4-0.8,2-1.2c1.8-1.1,3-2.7,3.5-4.8c0.1-0.3,0.1-0.6,0.2-0.9c0-0.5,0-0.9,0-1.4C30.2,10.2,30.1,9.9,30,9.6z M8.3,15.3
	c-0.8,0.6-1.7,1.1-2.5,1.7c-1.1,0.7-2,1.6-2.4,2.9c-0.1-0.5-0.1-1,0-1.5c0.2-0.8,0.5-1.6,1.2-2.1c0.3-0.3,0.7-0.7,1.1-0.9
	c0.8-0.6,1.7-1.1,2.6-1.7c0.3-0.2,0.6-0.4,0.9-0.5c0.2,0.4,0.5,0.8,0.7,1.2C9.3,14.6,8.8,15,8.3,15.3z M11.6,13.3
	c-0.2-0.3-0.5-0.7-0.8-1.1c0.5-0.3,0.9-0.5,1.4-0.8c0,0,0.1,0,0.2,0c0.3,0.2,0.6,0.5,1,0.8C12.7,12.7,12.2,13,11.6,13.3z M28.1,12.1
	c-0.1,1-0.5,1.9-1.2,2.7c-0.4,0.4-0.8,0.8-1.2,1c-0.9,0.5-1.9,1.1-2.8,1.6c-0.8,0.4-1.6,0.9-2.3,1.3c-0.4,0.3-0.9,0.5-1.4,0.8
	c-0.1-0.5-0.1-0.9-0.2-1.3c-0.3-1.6-0.8-3.2-1.7-4.6c-0.6-1.1-1.4-2-2.5-2.7c-0.1,0-0.1-0.1-0.2-0.2c-0.1-0.1-0.2-0.1-0.3-0.2
	c0.6-0.3,1.1-0.6,1.6-0.9c0.8-0.5,1.6-0.9,2.5-1.4c0.8-0.4,1.6-0.9,2.3-1.3c0.6-0.4,1.2-0.6,1.8-0.7c1-0.2,2.1,0,3,0.5
	C27.4,7.8,28.4,9.8,28.1,12.1z"/>
</svg>
