<?xml version="1.0" encoding="utf-8"?>
<!-- Generator: Adobe Illustrator 16.0.0, SVG Export Plug-In . SVG Version: 6.00 Build 0)  -->
<!DOCTYPE svg PUBLIC "-//W3C//DTD SVG 1.1//EN" "http://www.w3.org/Graphics/SVG/1.1/DTD/svg11.dtd">
<svg version="1.1" xmlns="http://www.w3.org/2000/svg" xmlns:xlink="http://www.w3.org/1999/xlink" x="0px" y="0px" width="32px"
	 height="32px" viewBox="0 0 32 32" style="enable-background:new 0 0 32 32;" xml:space="preserve">
<style type="text/css">
<![CDATA[
	.st0{display:none;}
]]>
</style>
<g id="Layer_1" class="st0">
</g>
<g id="Layer_2">
	<path d="M15.2,2.4c0.5,0,0.9,0,1.4,0c0.2,0,0.4,0.1,0.6,0.1C23,3,28.1,7,29.6,12.5c0.3,1,0.4,1.9,0.6,2.9c0,0.4,0,0.9,0,1.3
		c0,0.2-0.1,0.4-0.1,0.6c-0.5,5.5-4.5,10.2-10,11.8c-1.1,0.3-2.2,0.4-3.3,0.7c-0.5,0-0.9,0-1.4,0c-0.2,0-0.3-0.1-0.5-0.1
		c-6-0.5-11-4.5-12.5-10.1c-0.2-0.9-0.3-1.8-0.5-2.7c0-0.4,0-0.9,0-1.3c0-0.2,0.1-0.4,0.1-0.6C2.3,9.4,6.4,4.6,11.8,3.1
		C12.9,2.8,14.1,2.6,15.2,2.4z M6.9,23c2.5-2.4,5-4.8,7.5-7.2c0.2-0.2,0.3-0.5,0.3-0.8c0-3.1,0-6.2,0-9.3c0-0.2,0-0.4,0-0.7
		c-4.2,0.6-7.3,2.7-9.1,6.3C3.5,15,4.2,20.1,6.9,23z M17.3,5c0,0.2,0,0.3,0,0.4c0,3.2,0,6.5,0,9.7c0,0.3,0.2,0.6,0.4,0.8
		c2.1,2,4.2,4,6.3,6c0.3,0.3,0.7,0.7,1,1c2.8-2.9,3.4-8,1.5-11.7C24.5,7.7,21.5,5.6,17.3,5z M14.6,19.2c-2,1.9-3.9,3.7-5.8,5.6
		c1.7,1.2,3.6,2.1,5.8,2.3C14.6,24.4,14.6,21.8,14.6,19.2z M17.3,19.3c0,2.6,0,5.2,0,7.8c2.2-0.2,4.1-1,5.8-2.3
		C21.1,23,19.2,21.1,17.3,19.3z"/>
</g>
</svg>
